/* XPM */
static char * abcardWindow_xpm[] = {
"32 32 255 2",
"  	c None",
". 	c #2A2AA0",
"+ 	c #0E2BEC",
"@ 	c #2330A2",
"# 	c #2D2CA2",
"$ 	c #2D2E9C",
"% 	c #2530AA",
"& 	c #2524EB",
"* 	c #2526E3",
"= 	c #302F9E",
"- 	c #302EA4",
"; 	c #182EE7",
"> 	c #31309F",
", 	c #382F92",
"' 	c #292CCF",
") 	c #2A32AE",
"! 	c #2A28E6",
"~ 	c #3231A0",
"{ 	c #342DB3",
"] 	c #3430A7",
"^ 	c #3432A1",
"/ 	c #2C2BE0",
"( 	c #3631A8",
"_ 	c #3630AF",
": 	c #3533A2",
"< 	c #41328A",
"[ 	c #3633A3",
"} 	c #2E37A4",
"| 	c #2F2AE8",
"1 	c #263BA6",
"2 	c #403485",
"3 	c #3732A9",
"4 	c #2F36AA",
"5 	c #2F35B1",
"6 	c #2231EA",
"7 	c #3834A4",
"8 	c #3038A5",
"9 	c #2532EC",
"0 	c #3139A6",
"a 	c #383899",
"b 	c #332CEA",
"c 	c #3A33B2",
"d 	c #0E43D7",
"e 	c #333AA7",
"f 	c #3D2FC7",
"g 	c #3D2ECD",
"h 	c #3B38A1",
"i 	c #2A33EE",
"j 	c #3C36AE",
"k 	c #353BA9",
"l 	c #3539B5",
"m 	c #2E41A6",
"n 	c #3D3AA3",
"o 	c #3D3C9E",
"p 	c #383AB7",
"q 	c #3F3BA4",
"r 	c #393CB2",
"s 	c #383FA6",
"t 	c #2848A4",
"u 	c #0056CB",
"v 	c #3A40A8",
"w 	c #3C33E9",
"x 	c #3238EA",
"y 	c #433AB3",
"z 	c #333CD6",
"A 	c #3439EC",
"B 	c #3C42A9",
"C 	c #2D4AAE",
"D 	c #543F80",
"E 	c #363AED",
"F 	c #3D43AA",
"G 	c #494198",
"H 	c #2F4CA9",
"I 	c #4542A5",
"J 	c #383BEE",
"K 	c #4743A6",
"L 	c #1B52CF",
"M 	c #643F6E",
"N 	c #4844A7",
"O 	c #633E86",
"P 	c #4945A8",
"Q 	c #3D3FEA",
"R 	c #67445D",
"S 	c #4A45A9",
"T 	c #4A44AF",
"U 	c #473BE9",
"V 	c #4349AA",
"W 	c #56458C",
"X 	c #155CC3",
"Y 	c #4448B0",
"Z 	c #3F40EC",
"` 	c #454AAB",
" .	c #5E467D",
"..	c #464BAD",
"+.	c #624779",
"@.	c #474BAE",
"#.	c #6A466A",
"$.	c #4242EE",
"%.	c #484CAF",
"&.	c #3A47F0",
"*.	c #1B65A4",
"=.	c #504DAA",
"-.	c #3552E1",
";.	c #514EAB",
">.	c #714C5F",
",.	c #4847EB",
"'.	c #534DB2",
").	c #2D62AA",
"!.	c #0079AA",
"~.	c #524FAD",
"{.	c #4E4FBA",
"].	c #4A49E6",
"^.	c #4A48ED",
"/.	c #176CB8",
"(.	c #7F4B4E",
"_.	c #4D53AF",
":.	c #5450AE",
"<.	c #434DEF",
"[.	c #4C49EE",
"}.	c #4C4CE2",
"|.	c #7E4F4A",
"1.	c #5054B1",
"2.	c #5154B7",
"3.	c #874F43",
"4.	c #894F3E",
"5.	c #5256B3",
"6.	c #865048",
"7.	c #894E4E",
"8.	c #514EEC",
"9.	c #1B7A9F",
"0.	c #2F67D0",
"a.	c #107DAF",
"b.	c #4B54EF",
"c.	c #5450EE",
"d.	c #945528",
"e.	c #5453E2",
"f.	c #1180AB",
"g.	c #915538",
"h.	c #207AA6",
"i.	c #595ABE",
"j.	c #1A79C5",
"k.	c #96572A",
"l.	c #9A552A",
"m.	c #985435",
"n.	c #91563F",
"o.	c #945A24",
"p.	c #98582B",
"q.	c #8A6124",
"r.	c #925D25",
"s.	c #965836",
"t.	c #9C572C",
"u.	c #9A5A26",
"v.	c #1387A5",
"w.	c #5A56ED",
"x.	c #9D582D",
"y.	c #965C2C",
"z.	c #A05928",
"A.	c #9F592E",
"B.	c #995E28",
"C.	c #A15A29",
"D.	c #00969F",
"E.	c #9E5D29",
"F.	c #0097A7",
"G.	c #976229",
"H.	c #575DF3",
"I.	c #6063C1",
"J.	c #8F6A24",
"K.	c #9C5E41",
"L.	c #13939E",
"M.	c #2388B4",
"N.	c #96672C",
"O.	c #9A652C",
"P.	c #645FF0",
"Q.	c #0D9C99",
"R.	c #00A790",
"S.	c #9A6E23",
"T.	c #7A65B1",
"U.	c #499051",
"V.	c #00AA93",
"W.	c #00AC8F",
"X.	c #6267F6",
"Y.	c #548F4B",
"Z.	c #00AE90",
"`.	c #00AF91",
" +	c #0DAB88",
".+	c #6D6ECE",
"++	c #9C6A65",
"@+	c #10A898",
"#+	c #A26B56",
"$+	c #686DF5",
"%+	c #696EF7",
"&+	c #1BAA8D",
"*+	c #14AE8B",
"=+	c #00B893",
"-+	c #6B6FF8",
";+	c #00B99A",
">+	c #736FF3",
",+	c #7571F5",
"'+	c #7573F0",
")+	c #AA7C31",
"!+	c #0BBB96",
"~+	c #00C09A",
"{+	c #839234",
"]+	c #00C49E",
"^+	c #737BF6",
"/+	c #00C7A0",
"(+	c #8B9437",
"_+	c #16BE99",
":+	c #A07C89",
"<+	c #A68D22",
"[+	c #A18199",
"}+	c #8082F1",
"|+	c #8488DC",
"1+	c #8286EF",
"2+	c #1FC99C",
"3+	c #AB9C2F",
"4+	c #888BF5",
"5+	c #B89C2B",
"6+	c #8D91E6",
"7+	c #B6A02C",
"8+	c #9391E1",
"9+	c #A6AA38",
"0+	c #9394F1",
"a+	c #9497ED",
"b+	c #C69F41",
"c+	c #C1A92E",
"d+	c #989BF1",
"e+	c #979DEC",
"f+	c #9B9EF4",
"g+	c #C7AE33",
"h+	c #CCA942",
"i+	c #9CA2F2",
"j+	c #D0AC3E",
"k+	c #A2A3ED",
"l+	c #A4A5EF",
"m+	c #D1B734",
"n+	c #DABA42",
"o+	c #D8BD3B",
"p+	c #DCC035",
"q+	c #DFC338",
"r+	c #E4C73D",
"s+	c #E6C93E",
"t+	c #E6CB51",
"u+	c #E9CD4B",
"v+	c #EBCE44",
"w+	c #EED64A",
"x+	c #F3D54B",
"y+	c #F5D856",
"z+	c #F2DB4F",
"A+	c #F9DA50",
"B+	c #FADB52",
"C+	c #F6DE52",
"D+	c #F7DF53",
"E+	c #F8E054",
"F+	c #FAE156",
"                      @ 8 e h h h 8 h } @                       ",
"                  : n =.5.:.:.~.~.=...S s : ~                   ",
"              ^ e 5.T.:.:._.=.=...S N V B I q : >               ",
"            : ~.5.:._._.=.=...S V K I s s q n 8 h >             ",
"          h 1.1.:._.=...=.S N K I s s q h h h : ~ $ >           ",
"        8 1._.~.......V N K I s q n h h : ^ > > $ . . ~         ",
"      ^ _.~.=.=...V N F I G  .>.#.D a ^ > > $ $ . $ . $ ~       ",
"    ^ =...=.S S N K B W n.z.A.z.A.A.A.|., . . $ . $ . . $ @     ",
"    0 ....S N K I s #.A.z.A.A.A.z.z.A.A.m.2 . . . . $ $ . ~     ",
"  ~ V S V I I s s o m.A.A.z.z.z.A.A.A.z.A.|.$ . $ . . . . $ >   ",
"  : N F s s q n h +.A.A.z.A.A.t.N.y.z.A.A.A.2 $ . $ $ . $ . ^   ",
"> h I q s h h } : 6.A.A.p.O.k.y.u+t+)+u.A.z.R . . . . $ . $ > $ ",
"~ q s h 8 h : ~ > g.z.N.n+t+E.b+F+y+z+j+y.A.|.$ $ . $ . . . . ~ ",
"^ '.I.I.i.2.2.2.{.s.p.c+C+y+b+y+F+F+F+y+n+p.3.. . $ . $ . } i.7 ",
"T l+i+l+i+i+e+6+1+K.o.o+F+B+C+y+F+F+F+F+q+o.6.. $ . q .+6+k+l+T ",
"Y i+l+l+l+l+l+l+i+#+k.p+F+F+F+F+F+F+F+F+o+r.++6+8+6+k+e+d+d+k+Y ",
"r >+>+'+}+4+6+e+k+:+l.g+C+F+F+y+F+F+F+F+p+d.[+a+1+'+>+>+-+'+,+r ",
"l P.$+>+X.H.,.b x T.t.<+z+F+F+F+F+y+F+z+5+l.f & * * 6 J 8.P.>+y ",
"c & | | * * * * & & 7.q.r+y+F+F+F+F+F+r+J.O * * | | 6 w w w U c ",
"( * & * & & & * * * f 3.3+v+F+y+F+F+u+7+M * & | 6 6 w w U J Q % ",
". ' * * * * * & & * + f. +9+r+x+y+r+9+*+/.* | w w x U E Q $.f - ",
"  _ & & & & * * & * X V.V.*+U.(+{+Y. +V.V.L w w w U Q Q $.,.l   ",
"  4 * * * * & & * * v.V.V.;+~+=+=+~+=+V.V.a.x J Q Q $.,.<.].(   ",
"    { * & * * * & * Q.V.V._+/+/+/+/+;+V.V.L.E Q $.$.,.,.<.l     ",
"    - / * & & & * / V.V.V.~+2+/+/+/+_+V.V.R.Q $.,.,.8.8.}.4     ",
"      ( * * * * * d V.V.V.]+/+/+/+/+~+V.V.V.e.,.].8.b.w.3       ",
"        j * & & & 2.V.V.V.]+/+/+/+/+~+V.V.V.0.8.b.w.w.r         ",
"          5 * * * /.V.V.&+/+/+/+/+/+]+V.V.V.j.b.w.e.r           ",
"            % / | f.V.V.V./+/+/+/+2+/+V.&+V.M.H.e.4             ",
"              - _ D.V.V.Z./+/+2+/+/+/+W.V.V.F.y (               ",
"                  1 *.@+`./+/+/+/+/+/+W.V.9.t                   ",
"                      - 1 H ).h.h.*.C m >                       "};
