/* XPM */
static char * ablistWindow_xpm[] = {
"32 32 255 2",
"  	c None",
". 	c #292A9F",
"+ 	c #0E2BEC",
"@ 	c #2330A2",
"# 	c #2D2CA2",
"$ 	c #2524EB",
"% 	c #2F2F9D",
"& 	c #302EA4",
"* 	c #2727E5",
"= 	c #31309F",
"- 	c #292CCF",
"; 	c #2A32AE",
"> 	c #3231A0",
", 	c #342DB3",
"' 	c #3330A6",
") 	c #2B2ADF",
"! 	c #3432A1",
"~ 	c #3431A7",
"{ 	c #3631A8",
"] 	c #3533A2",
"^ 	c #3633A3",
"/ 	c #2E37A4",
"( 	c #3732A9",
"_ 	c #2F36AA",
": 	c #2F35B1",
"< 	c #3831B0",
"[ 	c #3834A4",
"} 	c #3038A5",
"| 	c #312BE9",
"1 	c #3139A6",
"2 	c #3237B3",
"3 	c #2732ED",
"4 	c #3B33B2",
"5 	c #333AA7",
"6 	c #3339AE",
"7 	c #3338B4",
"8 	c #3B38A1",
"9 	c #3C36AD",
"0 	c #3539B5",
"a 	c #3D3AA3",
"b 	c #373CAA",
"c 	c #383AB7",
"d 	c #3931E7",
"e 	c #3E3BA4",
"f 	c #383FA6",
"g 	c #3A36D3",
"h 	c #393DB2",
"i 	c #403CA5",
"j 	c #3238EA",
"k 	c #433AB3",
"l 	c #3D33E9",
"m 	c #333CD6",
"n 	c #3B41A8",
"o 	c #3439EC",
"p 	c #363AED",
"q 	c #3D43AA",
"r 	c #383BEE",
"s 	c #4642A6",
"t 	c #4844A7",
"u 	c #3D3FEA",
"v 	c #4A45A9",
"w 	c #4A44AF",
"x 	c #473BE9",
"y 	c #4448B0",
"z 	c #4449AB",
"A 	c #3F40EC",
"B 	c #464BAD",
"C 	c #3846EF",
"D 	c #4242ED",
"E 	c #474CAE",
"F 	c #514DAB",
"G 	c #474BD7",
"H 	c #4847EB",
"I 	c #534DB2",
"J 	c #524FAD",
"K 	c #4A49E6",
"L 	c #534FAE",
"M 	c #424DEF",
"N 	c #4E53AF",
"O 	c #4C49EE",
"P 	c #4C4CE2",
"Q 	c #444EF0",
"R 	c #5054B1",
"S 	c #5154B7",
"T 	c #5156B3",
"U 	c #524EEC",
"V 	c #925326",
"W 	c #8F5627",
"X 	c #4B54EF",
"Y 	c #5450EE",
"Z 	c #595ABE",
"` 	c #945A24",
" .	c #4F58EC",
"..	c #5955ED",
"+.	c #9D582D",
"@.	c #9B5B27",
"#.	c #A05928",
"$.	c #8B6720",
"%.	c #906622",
"&.	c #575DF3",
"*.	c #6063C1",
"=.	c #94652A",
"-.	c #956A27",
";.	c #645FF0",
">.	c #A76537",
",.	c #A36B2C",
"'.	c #6267F6",
").	c #00AE90",
"!.	c #A96840",
"~.	c #00B092",
"{.	c #A07328",
"].	c #6D6ECE",
"^.	c #AC6B42",
"/.	c #686DF5",
"(.	c #7573B3",
"_.	c #7475AF",
":.	c #696EF7",
"<.	c #00B696",
"[.	c #1BAA8D",
"}.	c #6B6FF8",
"|.	c #7677B1",
"1.	c #0AB396",
"2.	c #00B899",
"3.	c #726EF2",
"4.	c #A07745",
"5.	c #04B994",
"6.	c #22AD84",
"7.	c #16B099",
"8.	c #7370F4",
"9.	c #AE734D",
"0.	c #7571F5",
"a.	c #9F822A",
"b.	c #B0754F",
"c.	c #7C7CC9",
"d.	c #40A882",
"e.	c #7F7BD0",
"f.	c #737BF6",
"g.	c #7A7FD2",
"h.	c #8282B0",
"i.	c #769C47",
"j.	c #8383B2",
"k.	c #8080CE",
"l.	c #8484B3",
"m.	c #8686B4",
"n.	c #B47F5D",
"o.	c #8383D1",
"p.	c #72A459",
"q.	c #26BEA0",
"r.	c #2BBBA4",
"s.	c #8082F1",
"t.	c #8C88B1",
"u.	c #8587CF",
"v.	c #B88360",
"w.	c #8E8AB3",
"x.	c #8789D1",
"y.	c #8F8BB5",
"z.	c #1FC99C",
"A.	c #8B8EB6",
"B.	c #31BFA7",
"C.	c #94A13C",
"D.	c #898BD3",
"E.	c #8C90B8",
"F.	c #8F8CCF",
"G.	c #8E8ECA",
"H.	c #41BDA7",
"I.	c #888BF5",
"J.	c #918ED1",
"K.	c #928FD2",
"L.	c #BD9739",
"M.	c #BC8E6E",
"N.	c #37C9AA",
"O.	c #9291E1",
"P.	c #C0993B",
"Q.	c #4FC3B3",
"R.	c #51C5B5",
"S.	c #9699F0",
"T.	c #C1AA37",
"U.	c #999DF3",
"V.	c #9CA2F2",
"W.	c #4AD8B8",
"X.	c #A2A3ED",
"Y.	c #65CCBD",
"Z.	c #A4A5EF",
"`.	c #C6A78E",
" +	c #CEA891",
".+	c #B1B1BB",
"++	c #AEB2C2",
"@+	c #B3B0C1",
"#+	c #B2B4B1",
"$+	c #B2B2BC",
"%+	c #75D1C3",
"&+	c #B3B3BD",
"*+	c #B0B4C3",
"=+	c #D0BD40",
"-+	c #B4B6B3",
";+	c #B1B5C5",
">+	c #B4B5BF",
",+	c #B8B9C3",
"'+	c #B9BBB8",
")+	c #DEBE45",
"!+	c #D8C33F",
"~+	c #BABCB9",
"{+	c #7ADBC6",
"]+	c #BBBBC5",
"^+	c #D4B6A2",
"/+	c #C2C4C1",
"(+	c #8BDDD1",
"_+	c #93DBD1",
":+	c #E8CB41",
"<+	c #E6CB49",
"[+	c #C4C6C3",
"}+	c #EACD43",
"|+	c #90E1D5",
"1+	c #C7C9C6",
"2+	c #DEC2B3",
"3+	c #C9CBC8",
"4+	c #9FDED5",
"5+	c #EBD448",
"6+	c #CDCFCC",
"7+	c #E1CDBC",
"8+	c #D1D3D0",
"9+	c #AEE5DD",
"0+	c #F8DA58",
"a+	c #F5DD51",
"b+	c #D4D6D3",
"c+	c #A8ECDB",
"d+	c #F8E054",
"e+	c #D9DBD7",
"f+	c #DBDDDA",
"g+	c #EBD9CE",
"h+	c #DEE0DD",
"i+	c #CFE9E0",
"j+	c #E0E2DF",
"k+	c #F0DDD2",
"l+	c #E9E0D9",
"m+	c #E6E1DF",
"n+	c #EBE5E4",
"o+	c #EFE6DF",
"p+	c #D4F2EF",
"q+	c #E8EAE7",
"r+	c #EAECE9",
"s+	c #DDF2F1",
"t+	c #F3EAE3",
"u+	c #EDEFEB",
"v+	c #E1F6F5",
"w+	c #EFF1EE",
"x+	c #F8EFE8",
"y+	c #F1F3EF",
"z+	c #EDF7F2",
"A+	c #EBF9F9",
"B+	c #F4F7F3",
"C+	c #FAF5F3",
"D+	c #FFFAF9",
"E+	c #FBFDFA",
"F+	c #FEFFFC",
"                      @ } 5 8 8 8 } 8 / %                       ",
"                  ] a F T J N J N F B v i ] >                   ",
"              ! 5 T (.J J N F F B v t t f s e ] =               ",
"            _.y.E.y.y.A.y.A.w.t.t.m.m.m.l.j.j.h.h._.            ",
"          8 -+r+r+r+n+m+r+r+n+r+r+r+r+n+r+r+r+r+r+.+=           ",
"        } N &+F+x+n.#.#.!.l+F+F+F+F+F+F+F+F+F+F+F+.+. >         ",
"      ! J F &+F+M.+.#.V #.>.E+w+q+n+q+q+n+q+n+u+F+.+. % >       ",
"    ! E E F &+F+>.{.,.0+L.@.l+1+$+#+$+#+#+#+#+/+F+.+. . % @     ",
"    1 E z v &+F+b.<+d+d+0+$.o+y+u+n+u+u+u+u+u+y+F+.+% % . >     ",
"  > z z z q &+F+M.<+0+d+a+%.D+F+F+F+F+F+F+F+F+F+F+.+. . . % =   ",
"  ] t q n i &+F+7+4.a+d+)+`.F+6+'+]+'+]+'+'+'+3+F+.+. . % . !   ",
"= 8 s f f 8 $+F+v+).C.C.6.c+F+h+8+8+8+8+8+8+8+e+F+.+. % . % = % ",
"> f f 8 } 8 $+F+_+[.z.z.<.r.F+F+F+F+F+F+F+F+F+F+F+.+% . . . . > ",
"! L *.*.Z S ]+F+Y.).z.z.2.).F+f+6+6+6+6+8+8+6+e+F+.+. % . / Z [ ",
"w Z.V.Z.V.V.]+F+Q.~.z.z.5.[.s+6+]+~+]+~+~+~+]+3+F+.+i ].O.X.Z.w ",
"y V.Z.Z.Z.Z.]+F+9+{+c+c+|+_+z+F+F+F+F+F+F+F+F+F+F+&+X.U.S.U.X.y ",
"h 3.8.f.s.I.'+F+F+2+n.9. +B+F+F+F+F+F+F+F+F+F+F+F+,+}.3.}.f.0.h ",
"0 ;./.3.'.&.;+F+^+#.#.+.@.v.F+F+F+F+F+F+F+F+F+F+F+@+| r U ;.3.h ",
"< * | + * * @+F+!.W W P.,.+.t+6+'+'+]+'+]+'+]+3+F+@+| d d j x ; ",
"~ * $ * $ * @+F+9.<+)+d+0+-.l+h+8+8+8+8+8+8+8+e+F+@+j j x r D ; ",
". - * * * * *+F+v.}+0+d+d+$.C+F+F+F+F+F+F+F+F+F+F+*+x p u D g ' ",
"  < $ * * $ @+F+`.T.d+d+5+n.F+j+b+b+n+b+b+b+b+h+F+*+u u D H 0   ",
"  ' ) * * * @+F+B+#+=+<+p.i+F+3+-+-+&+&+-+-+-+[+F+@+D H M K {   ",
"    , * $ * *+F+9+7.z.z.<.R.F+F+F+F+F+F+F+F+F+F+F+@+H H Q 0     ",
"    & ) * * @+F+%+).z.z.2.7.F+w+r+r+n+r+n+r+r+n+F+&+U U P _     ",
"      ~ * * *+F+Q.).z.z.5.7.A+1+#+#+$+#+#+#+$+/+F+&+X ..(       ",
"        9 * @+F+Y.B.R.W.B.B.p+y+r+r+n+r+r+r+n+w+F+;+..[         ",
"          < ++r+r+r+r+r+r+r+r+n+r+r+r+r+n+r+r+r+r+&+h           ",
"            (.c.e.g.g.k.k.o.o.u.u.x.x.D.F.F.J.K.G.|.            ",
"              & < d l j u u D H H M U Y X .. .k {               ",
"                  @ 4 g H D H H U U ....G k _                   ",
"                      & ( 9 9 2 9 6 6 9 =                       "};
