/* XPM */
static char * addressbookWindow_xpm[] = {
"32 32 255 2",
"  	c None",
". 	c #2A2AA0",
"+ 	c #2C2C9A",
"@ 	c #343367",
"# 	c #2D2D9B",
"$ 	c #353468",
"% 	c #2E2E9C",
"& 	c #2524EB",
"* 	c #302F9E",
"= 	c #2727E5",
"- 	c #1A2EE7",
"; 	c #31309F",
"> 	c #CD0000",
", 	c #3231A0",
"' 	c #CD0003",
") 	c #2C29E7",
"! 	c #3432A1",
"~ 	c #2D36A3",
"{ 	c #3533A2",
"] 	c #2E2AE8",
"^ 	c #3633A3",
"/ 	c #2E37A4",
"( 	c #2231EA",
"_ 	c #3038A5",
": 	c #312BE9",
"< 	c #312EDB",
"[ 	c #2532EB",
"} 	c #332CEA",
"| 	c #3937A0",
"1 	c #2732ED",
"2 	c #3A36A6",
"3 	c #333AA7",
"4 	c #3B38A1",
"5 	c #3534C8",
"6 	c #2A33EE",
"7 	c #353BA9",
"8 	c #3539B5",
"9 	c #3C39A2",
"0 	c #3D3AA3",
"a 	c #373CAA",
"b 	c #3E3BA4",
"c 	c #383DAC",
"d 	c #393CB2",
"e 	c #393BB8",
"f 	c #383FA6",
"g 	c #3B32E8",
"h 	c #403CA5",
"i 	c #3A40A7",
"j 	c #3238EA",
"k 	c #3D33E9",
"l 	c #3B41A8",
"m 	c #3D3CC2",
"n 	c #433EA8",
"o 	c #3439EC",
"p 	c #3D3FB5",
"q 	c #3C42A9",
"r 	c #3D3EBC",
"s 	c #443FA9",
"t 	c #363AED",
"u 	c #3F40B7",
"v 	c #3F3EC3",
"w 	c #3E43AB",
"x 	c #3742C4",
"y 	c #373DDF",
"z 	c #4542A5",
"A 	c #383BEE",
"B 	c #4044AD",
"C 	c #4142B9",
"D 	c #4743A6",
"E 	c #3A3FE1",
"F 	c #4240C6",
"G 	c #4145AE",
"H 	c #4844A7",
"I 	c #4343BB",
"J 	c #3C3EE9",
"K 	c #4246AF",
"L 	c #4345B5",
"M 	c #4945A8",
"N 	c #4A45A9",
"O 	c #3E3FEA",
"P 	c #473BE9",
"Q 	c #4349AA",
"R 	c #3E47C4",
"S 	c #4642C9",
"T 	c #4B46AA",
"U 	c #4B45B0",
"V 	c #3F40EC",
"W 	c #4548B1",
"X 	c #454AAB",
"Y 	c #4746BE",
"Z 	c #4745C4",
"` 	c #4141ED",
" .	c #464BAD",
"..	c #3846EF",
"+.	c #474BAE",
"@.	c #4342EE",
"#.	c #424AC7",
"$.	c #4E49AE",
"%.	c #484CAF",
"&.	c #4B47C7",
"*.	c #4B49C1",
"=.	c #3C48F1",
"-.	c #4B4DB6",
";.	c #504DAA",
">.	c #4D49C9",
",.	c #4746EB",
"'.	c #524CB1",
").	c #514EAB",
"!.	c #4947EC",
"~.	c #484ECC",
"{.	c #404CEE",
"].	c #524FAD",
"^.	c #4E4FBA",
"/.	c #4A48ED",
"(.	c #4D53AF",
"_.	c #424DEF",
":.	c #5450AE",
"<.	c #4E53B0",
"[.	c #504FC1",
"}.	c #4C49EE",
"|.	c #514EC7",
"1.	c #444EF0",
"2.	c #5054B1",
"3.	c #4550EB",
"4.	c #5154B7",
"5.	c #5156B2",
"6.	c #514EEC",
"7.	c #5957AF",
"8.	c #4A53EE",
"9.	c #534FED",
"0.	c #5450EE",
"a.	c #4C54F0",
"b.	c #5453E2",
"c.	c #5B59B1",
"d.	c #585ABE",
"e.	c #656664",
"f.	c #925D25",
"g.	c #5955EC",
"h.	c #9D572C",
"i.	c #5259EE",
"j.	c #5957E6",
"k.	c #9B5B27",
"l.	c #5B57EE",
"m.	c #5D60BE",
"n.	c #A05A28",
"o.	c #916227",
"p.	c #565EEC",
"q.	c #976229",
"r.	c #575DF3",
"s.	c #6163C1",
"t.	c #A45D32",
"u.	c #6365C4",
"v.	c #9E6333",
"w.	c #A26133",
"x.	c #645FF0",
"y.	c #6667C7",
"z.	c #6766CC",
"A.	c #A56436",
"B.	c #9E6C2B",
"C.	c #696ACA",
"D.	c #00AA93",
"E.	c #6267F6",
"F.	c #6B6CCC",
"G.	c #00AE90",
"H.	c #6D6ECE",
"I.	c #656DEE",
"J.	c #02B294",
"K.	c #686DF5",
"L.	c #7070D1",
"M.	c #696EF7",
"N.	c #7671CC",
"O.	c #6B6FF8",
"P.	c #00B899",
"Q.	c #7070EC",
"R.	c #726EF2",
"S.	c #AE7140",
"T.	c #1AB08D",
"U.	c #31A975",
"V.	c #7370F4",
"W.	c #0EB597",
"X.	c #7477D0",
"Y.	c #7571F5",
"Z.	c #7573F0",
"`.	c #AB7944",
" +	c #797BD6",
".+	c #1AB99B",
"++	c #737BF6",
"@+	c #8B8C95",
"#+	c #8082F1",
"$+	c #BA8354",
"%+	c #8185EE",
"&+	c #8488DC",
"*+	c #1FC99C",
"=+	c #73A48B",
"-+	c #4EB59B",
";+	c #888BF5",
">+	c #BC905D",
",+	c #8D91E6",
"'+	c #9391E1",
")+	c #9192EF",
"!+	c #9593E3",
"~+	c #9394F1",
"{+	c #9795E5",
"]+	c #9396EC",
"^+	c #9896E6",
"/+	c #B2A93A",
"(+	c #4FC8A5",
"_+	c #949BEA",
":+	c #9699F0",
"<+	c #C69A6C",
"[+	c #9B99EA",
"}+	c #5BC7A5",
"|+	c #B6AC3E",
"1+	c #969DEC",
"2+	c #989BF2",
"3+	c #C99C68",
"4+	c #9B9EF4",
"5+	c #A9A89F",
"6+	c #9CA2F2",
"7+	c #C9B036",
"8+	c #A7A6CA",
"9+	c #57D5AA",
"0+	c #A2A3ED",
"a+	c #A3A4EE",
"b+	c #A8A8CB",
"c+	c #A4A5EF",
"d+	c #6BD2A9",
"e+	c #B4B297",
"f+	c #B4B0A2",
"g+	c #B1ADCB",
"h+	c #D2B93F",
"i+	c #AFB3CF",
"j+	c #7AD6AF",
"k+	c #B9BCAC",
"l+	c #F0A989",
"m+	c #86D8B2",
"n+	c #82E3B4",
"o+	c #DAC08B",
"p+	c #C9CDA9",
"q+	c #EFD248",
"r+	c #EED250",
"s+	c #F0D94D",
"t+	c #F5DD51",
"u+	c #D9DAB0",
"v+	c #F7DF53",
"w+	c #BFE8BC",
"x+	c #DCD8C9",
"y+	c #F9E155",
"z+	c #F1E6B1",
"A+	c #F3E8B3",
"B+	c #E7F7C8",
"C+	c #EDFAC5",
"D+	c #FAF9C8",
"E+	c #F7FDCA",
"F+	c #FFFECD",
"                        W  . .W T H T W                         ",
"                  w  .2.7.2.:.].].;. .Q z l B                   ",
"              w  .7.7.2.:.(.;.;. .Q H Q l z h f n               ",
"            w 2.7.2.(.(.;.;. .T Q D z l n b 0 _ 4 a             ",
"           .7.7.:.(.;. .;.Q H D z l z b 9 4 4 { , % 9           ",
"        H 2.(.]. . . .Q H D z i f 0 4 4 { ! ; ; # + + 7         ",
"      w (.].;.;. .z.z.y.z.y.h 0 e.e.e.e.; ; ' ' ' ' . + 7       ",
"    w ]. .;.T N H z.z.z.z.z.4 e.e.e.e.e.# ' > ' > ' . . * a     ",
"    w  . .N $ $ c.c.c.c.d.m.e.e.e.e.e.e.> ' > > > > $ $ + 2     ",
"  l T N Q $ @+e+k+k+k+5+f+k+p+p+x+p+p+p+<+l+l+l+l+<+@ $ . + n   ",
"  l H w l @ k+F+F+F+F+F+F+F+F+F+F+F+F+F+F+F+F+F+F+F+@ $ + . a   ",
"  f z f f @ k+F+F+F+F+F+F+F+F+F+F+A+$+t.A.<+D+F+F+F+@ $ . + !   ",
"h f f 9 _ @ e+F+i+i+8+8+g+g+x+F+F+S.k.n.h.h.3+F+F+F+$ $ + + . n ",
"n '.s.s.d.@ k+F+y.z.z.z.z.z.i+F+z+k.B.q.r+q.t.F+F+F+@ $ . / d.-.",
"u.c+6+c+6+@ k+F+F+F+F+F+F+F+F+F+A+f.v+v+y+s+v.F+F+F+@ $ ,+0+c+s.",
"u.6+c+c+c+$ k+F+g+i+8+b+b+i+x+F+F+v.r+y+r+r+`.F+F+F+$ $ :+[+0+u.",
"~.R.Q.Z.#+$ e+F+z.z.y.z.z.y.i+F+F+>+h+y+y+7+o+F+F+F+@ $ O.V.Y.~.",
"Z p.K.R.E.@ k+F+F+F+F+F+F+F+F+F+F+w+U.|+/+U.B+F+F+F+$ $ 6.x.Q.|.",
"v = ] ] = $ k+F+g+g+8+b+g+g+x+F+F+}+J.*+*+D.w+F+F+F+@ $ g j P m ",
"e = & = & @ e+F+z.z.z.z.y.z.i+F+F+W.J.*+*+G.(+F+F+F+@ $ P A O r ",
"  < = = = @ k+F+F+F+F+F+F+F+F+F+E+D.P.*+*+J..+F+F+F+$ $ O O 5   ",
"  v & = = @ k+F+F+F+F+e+u+F+F+F+C+d+d+n+=+=+j+F+F+F+@ $ O ,.S   ",
"  p = = = $ k+F+F+F+F+e.e+F+F+F+F+F+F+F+e.e+F+F+F+F+@ $ /.6.p   ",
"    5 = & @ $ @ @ @ @ = $ $ @ @ @ @ $ $ j $ @ @ @ @ $ $ 1.&.    ",
"    d = = $ $ $ $ $ $ & = $ e.$ $ $ $ $ t J $ $ $ $ $ 6.g.C     ",
"      C = = = = = = = = ] ( } [ j j P J O O ,.,.6.6.8.g.L       ",
"        #.= = & & = & ] ( [ k k P O O ,.,./.{.6.8.g.i.~.        ",
"          x = = = : ] g g j j t O O /.,.}.6.9.8.g.i.[.          ",
"            e < ] } [ j j P J O O ,.{.6.8.8.g.l.j.Y             ",
"              d m g k j O O O ,.,.6.6.0.8.i.i.>.C               ",
"                  e S y ,.O /.}.6.9.g.g.b.|.L                   ",
"                        C Y #.Z Z #.*.Y                         "};
