/* XPM */
static char * bmPropsWindow_xpm[] = {
"32 32 255 2",
"  	c None",
". 	c #131412",
"+ 	c #171917",
"@ 	c #141E16",
"# 	c #1A1B19",
"$ 	c #1C1D1B",
"% 	c #1E1F1D",
"& 	c #242523",
"* 	c #272826",
"= 	c #020501",
"- 	c #2B2D2A",
"; 	c #30322F",
"> 	c #323331",
", 	c #1F2E99",
"' 	c #0D2AEC",
") 	c #2A2AA0",
"! 	c #373936",
"~ 	c #2C2E94",
"{ 	c #2D2D9B",
"] 	c #2524EB",
"^ 	c #302F9E",
"/ 	c #1A2EE7",
"( 	c #31309F",
"_ 	c #2929DE",
": 	c #2A28E6",
"< 	c #3331A0",
"[ 	c #323494",
"} 	c #1E30E1",
"| 	c #2E2AE8",
"1 	c #3633A3",
"2 	c #2E37A4",
"3 	c #2231EA",
"4 	c #303A99",
"5 	c #312EDB",
"6 	c #322BEA",
"7 	c #2632EC",
"8 	c #3A36A6",
"9 	c #3B38A1",
"0 	c #394D37",
"a 	c #3534C8",
"b 	c #343BA9",
"c 	c #3539B5",
"d 	c #214F78",
"e 	c #224E7C",
"f 	c #454744",
"g 	c #3E3AA3",
"h 	c #363F9F",
"i 	c #2E38E1",
"j 	c #383DAB",
"k 	c #3A31E7",
"l 	c #393CB2",
"m 	c #393BB8",
"n 	c #2D5163",
"o 	c #484947",
"p 	c #393FA6",
"q 	c #2D4D7D",
"r 	c #413CA6",
"s 	c #334E73",
"t 	c #3D33E9",
"u 	c #2B5370",
"v 	c #3B41A8",
"w 	c #3339EB",
"x 	c #3C42A9",
"y 	c #3D3EBC",
"z 	c #3E3DC2",
"A 	c #443FA9",
"B 	c #3E40B6",
"C 	c #363AED",
"D 	c #295D57",
"E 	c #2F5D47",
"F 	c #3E43AB",
"G 	c #3742C4",
"H 	c #3D46A0",
"I 	c #4541A5",
"J 	c #2C6043",
"K 	c #383BEE",
"L 	c #385278",
"M 	c #393EE1",
"N 	c #2E5970",
"O 	c #4142B9",
"P 	c #296155",
"Q 	c #4E504D",
"R 	c #4743A6",
"S 	c #4240C6",
"T 	c #315875",
"U 	c #2A692E",
"V 	c #2C5D69",
"W 	c #326240",
"X 	c #4246AE",
"Y 	c #4944A8",
"Z 	c #4345B5",
"` 	c #3D3FEA",
" .	c #4544BC",
"..	c #3D48BD",
"+.	c #3D47C3",
"@.	c #473BE9",
"#.	c #306352",
"$.	c #4349AA",
"%.	c #2D6B30",
"&.	c #4642C9",
"*.	c #316548",
"=.	c #4B46AA",
"-.	c #3C5A68",
";.	c #3F40EC",
">.	c #4548B1",
",.	c #4744C3",
"'.	c #444BA6",
").	c #346257",
"!.	c #316A35",
"~.	c #3E4CB3",
"{.	c #2B6D37",
"].	c #32683F",
"^.	c #345D75",
"/.	c #4746BE",
"(.	c #3E5682",
"_.	c #405872",
":.	c #4049C6",
"<.	c #464BAD",
"[.	c #545553",
"}.	c #2F6E32",
"|.	c #474BAE",
"1.	c #385F6C",
"2.	c #4242EE",
"3.	c #4946C6",
"4.	c #4E49AE",
"5.	c #484CAF",
"6.	c #3A47F0",
"7.	c #4052A5",
"8.	c #385E7C",
"9.	c #356D38",
"0.	c #3F5C7B",
"a.	c #4B49C1",
"b.	c #4752A0",
"c.	c #4547E3",
"d.	c #4B4DB6",
"e.	c #4D49C9",
"f.	c #475B7C",
"g.	c #4846EB",
"h.	c #524CB1",
"i.	c #3E5E89",
"j.	c #514EAB",
"k.	c #4650BF",
"l.	c #425A99",
"m.	c #484ECC",
"n.	c #534FAE",
"o.	c #4A48ED",
"p.	c #367438",
"q.	c #415E90",
"r.	c #4E5793",
"s.	c #424DEF",
"t.	c #34753F",
"u.	c #4E53AF",
"v.	c #504FC1",
"w.	c #4C49EE",
"x.	c #514EC7",
"y.	c #3B733E",
"z.	c #35763F",
"A.	c #444EF0",
"B.	c #5054B1",
"C.	c #4550EB",
"D.	c #5154B7",
"E.	c #5457A1",
"F.	c #3D7540",
"G.	c #3A783B",
"H.	c #5156B3",
"I.	c #455DB6",
"J.	c #514EEC",
"K.	c #427350",
"L.	c #60625F",
"M.	c #5957AF",
"N.	c #4A53EE",
"O.	c #5450EE",
"P.	c #4C54F0",
"Q.	c #5453E2",
"R.	c #5859BE",
"S.	c #437B45",
"T.	c #595ABF",
"U.	c #5259EE",
"V.	c #5957E6",
"W.	c #5A56ED",
"X.	c #477F49",
"Y.	c #517A58",
"Z.	c #507678",
"`.	c #6A6C69",
" +	c #575DF3",
".+	c #6163C1",
"++	c #6365C4",
"@+	c #645FF0",
"#+	c #6567C6",
"$+	c #4D8857",
"%+	c #508851",
"&+	c #56807B",
"*+	c #6267F6",
"=+	c #4F9057",
"-+	c #60837F",
";+	c #6D6ECE",
">+	c #656DEE",
",+	c #696EF6",
"'+	c #6B6FF8",
")+	c #56985E",
"!+	c #639167",
"~+	c #736FF3",
"{+	c #7571F5",
"]+	c #80827F",
"^+	c #7573F0",
"/+	c #609960",
"(+	c #737BF6",
"_+	c #67A067",
":+	c #8B8D8A",
"<+	c #709F74",
"[+	c #7C84E5",
"}+	c #8082F1",
"|+	c #8F918E",
"1+	c #8B8DD5",
"2+	c #949693",
"3+	c #888BF5",
"4+	c #71AE7A",
"5+	c #73B07C",
"6+	c #8D91E6",
"7+	c #75B17D",
"8+	c #9391E1",
"9+	c #9091ED",
"0+	c #9B9D99",
"a+	c #77B480",
"b+	c #9394F1",
"c+	c #7AB682",
"d+	c #989BF1",
"e+	c #979DEC",
"f+	c #7FBD88",
"g+	c #81BE89",
"h+	c #A5A7A4",
"i+	c #9B9EF4",
"j+	c #88BD89",
"k+	c #83C08B",
"l+	c #9CA2F2",
"m+	c #A8AAA7",
"n+	c #A2A3ED",
"o+	c #A4A5EF",
"p+	c #88C590",
"q+	c #89C791",
"r+	c #B3B5B2",
"s+	c #BEC0BD",
"t+	c #C1C3BF",
"u+	c #C7C9C6",
"v+	c #CCCECB",
"w+	c #D1D3D0",
"x+	c #D7D9D6",
"y+	c #DEE0DD",
"z+	c #E9EBE8",
"A+	c #EBEEEA",
"B+	c #F1F3EF",
"C+	c #F6F8F5",
"D+	c #F9FBF8",
"E+	c #FBFDFA",
"F+	c #FEFFFC",
"                        >.<.<.=.X X X X                         ",
"                  F <.u.M.B.u.j.j.j.<.$.R v A                   ",
"              F <.M.M.B.u.u.j.j.<.$.Y $.v I r r r               ",
"            R B.E.r.u.u.<.j.<.=.$.R R v r g g 2 9 j             ",
"          <.f.].U %.]._.'.$.Y R R v I g 9 9 9 < < ( b           ",
"        X f.U )+c+g+/+9.W j.R p p p 9 9 9 < ( ( { ) { b         ",
"      F E.U _+q+q+q+p+g+F.W H g g 2 9 < ( ( { { ) { ) { b       ",
"    F j.L 9.q+p+j+<+f+q+j+F.W [ 9 < < { { ) ) { ) { ) ) ( j     ",
"    R <.-.z.p+q+Y.= - q+p+g+z.W [ { { { ) { ) ) + ) { { { 8     ",
"  v =.Y (.9.p+p+/+@ 0 p+q+p+g+y.W ~ { ) ) { { [.m+# ) ) ) { r   ",
"  p R F h ]._+q+q+p+q+q+p+q+q+g+y.J , { { ) f E+F+s+$ ) { ) j   ",
"  p I p p s 9.4+q+p+q+q+p+q+q+p+g+p.E ~ { > D+F+F+w+% { ) { <   ",
"p p p 9 2 9 n %.4+q+p+p+q+p+q+p+q+f+y.E * B+F+F+B+* { ) { ) ) r ",
"v n..+.+R.D.D.1.%.5+q+q+q+p+q+q+p+q+g+& z+F+F+C+> { ) { ) 2 T.d.",
"++o+l+o+l+l+e+6+Z.%.5+p+q+p+q+p+q+p+& y+F+F+F+Q { ) r ;+6+n+o+.+",
"#+l+o+o+o+o+o+o+l+-+9.7+p+q+p+q+q+* y+F+F+F+`.+ 8+6+n+e+d+d+n+#+",
"m.~+~+^+}+3+9+e+# . &+9.7+p+q+p+> z+F+F+F+:+# K.[+^+,+~+'+^+{+m.",
"e.@+,+~+*+ +o.$ u+z+% &+%.7+p+o C+F+F+F+m++ g+t.)._ 3 K J.@+>+x.",
"z ] : ] : : # 0+F+F+s+# _.# L.E+F+F+F+s+# p+q+f+y.D } k k t @.z ",
"B : ] : ] ] ] o F+F+F+2+* |+F+F+F+F+s+# p+q+p+p+g+t.).i @.K ` y ",
"  5 : : : : : $ s+F+F+F+F+F+F+F+F+r+# q+p+q+q+q+q+g+F.#.c.2.M   ",
"  z ] ] ] ] : : # v+F+F+F+F+F+F+h+# q+q+q+j+$+X.$+=+%+U #.c.&.  ",
"  B : : : : ] ] : $ w+F+F+F+E+]+# 9.7+p+q+k+%.N T V ).*.].k.B   ",
"    a : ] : : : ] : $ w+F+x+; : ] u !.a+q+p+U ..2.2.o.w.A.3.    ",
"    l _ : ] ] ] : : : $ $ # | | k k T %.a+p+!.~.g.o.J.J.W.O     ",
"      B : : : : : ] : : : 3 | 3 k t ` T 9.a+9.7.J.J.N.W./.      ",
"        +.: ] ] ] : ] : | 3 t w @.` ` g.^.9.%.l.N.W.W.m.        ",
"          G : : : | | k t w w C ` ` g.g.c.8.%.i.W.U.v.          ",
"            m _ | | 3 w t @.` 2.2.g.o.J.N.N.q.I.V./.            ",
"              l z k w w ` ` 2.g.g.J.J.O.N.W.U.m.O               ",
"                  m &.M 2.2.o.c.J.J.W.W.Q.x.Z                   ",
"                        O /.a.,.3.+.../.                        "};
