/* XPM */
static char * bookmark_window_xpm[] = {
"32 32 255 2",
"  	c None",
". 	c #141E16",
"+ 	c #233223",
"@ 	c #020501",
"# 	c #2A2AA0",
"$ 	c #0E2BEC",
"% 	c #2C2C9A",
"& 	c #2D2D9B",
"* 	c #2E2E9C",
"= 	c #2524EB",
"- 	c #302F9E",
"; 	c #182EE7",
"> 	c #2727E5",
", 	c #31309F",
"' 	c #1B2FE8",
") 	c #3231A0",
"! 	c #2C29E7",
"~ 	c #3432A1",
"{ 	c #2D36A3",
"] 	c #3533A2",
"^ 	c #2E2AE8",
"/ 	c #3633A3",
"( 	c #2E37A4",
"_ 	c #2231EA",
": 	c #3038A5",
"< 	c #312BE9",
"[ 	c #312EDB",
"} 	c #2532EB",
"| 	c #332CEA",
"1 	c #3937A0",
"2 	c #2732ED",
"3 	c #3A36A6",
"4 	c #333AA7",
"5 	c #3434C8",
"6 	c #3B38A1",
"7 	c #394D37",
"8 	c #2A33EE",
"9 	c #3535C9",
"0 	c #353BA9",
"a 	c #3539B5",
"b 	c #3C39A2",
"c 	c #3D3AA3",
"d 	c #373CAA",
"e 	c #3931E7",
"f 	c #3E3BA4",
"g 	c #383DAB",
"h 	c #393CB2",
"i 	c #393BB8",
"j 	c #383FA6",
"k 	c #3037E9",
"l 	c #393EAD",
"m 	c #3B32E8",
"n 	c #403CA5",
"o 	c #413CA6",
"p 	c #3A40A7",
"q 	c #3238EA",
"r 	c #3D33E9",
"s 	c #423DA7",
"t 	c #3B41A8",
"u 	c #3C3DBB",
"v 	c #3D3CC2",
"w 	c #433EA8",
"x 	c #3439EC",
"y 	c #3D3FB5",
"z 	c #3C42A9",
"A 	c #443FA9",
"B 	c #363AED",
"C 	c #3F40B7",
"D 	c #3F3FBD",
"E 	c #3F3EC3",
"F 	c #3E43AB",
"G 	c #3742C4",
"H 	c #373DDF",
"I 	c #4542A5",
"J 	c #383BEE",
"K 	c #4044AD",
"L 	c #4142B8",
"M 	c #4743A6",
"N 	c #3A3FE1",
"O 	c #4240C6",
"P 	c #4145AE",
"Q 	c #2A692E",
"R 	c #4243BA",
"S 	c #4844A7",
"T 	c #4343BB",
"U 	c #3C3EE9",
"V 	c #4246AF",
"W 	c #2B6A2F",
"X 	c #4345B5",
"Y 	c #4541C8",
"Z 	c #4945A8",
"` 	c #4A45A9",
" .	c #3E3FEA",
"..	c #2C6B30",
"+.	c #3D47C3",
"@.	c #473BE9",
"#.	c #2F6B2A",
"$.	c #4349AA",
"%.	c #4B46AA",
"&.	c #4B45B0",
"*.	c #2D6C31",
"=.	c #3F40EC",
"-.	c #4548B1",
";.	c #4744C3",
">.	c #3F48C4",
",.	c #454AAB",
"'.	c #4843CA",
").	c #4746BE",
"!.	c #2F6D31",
"~.	c #4141ED",
"{.	c #4845C5",
"].	c #464BAD",
"^.	c #3846EF",
"/.	c #474BAE",
"(.	c #306E32",
"_.	c #4342EE",
":.	c #424AC7",
"<.	c #4E49AE",
"[.	c #484CAF",
"}.	c #316F33",
"|.	c #4B47C7",
"1.	c #327034",
"2.	c #4B49C1",
"3.	c #3C48F1",
"4.	c #514BB0",
"5.	c #4B4DB6",
"6.	c #504DAA",
"7.	c #4D49C9",
"8.	c #4746EB",
"9.	c #514EAB",
"0.	c #3F4BED",
"a.	c #4947EC",
"b.	c #534DB2",
"c.	c #484ECC",
"d.	c #524FAD",
"e.	c #4E4FBA",
"f.	c #414CEE",
"g.	c #4A48ED",
"h.	c #367438",
"i.	c #4D53AF",
"j.	c #424DEF",
"k.	c #5450AE",
"l.	c #4E53B0",
"m.	c #377539",
"n.	c #504FC1",
"o.	c #4C49EE",
"p.	c #514EC7",
"q.	c #38763A",
"r.	c #444EF0",
"s.	c #5054B1",
"t.	c #4550EB",
"u.	c #39773B",
"v.	c #5154B7",
"w.	c #5155B2",
"x.	c #3A783B",
"y.	c #5256B3",
"z.	c #504DEB",
"A.	c #514EEC",
"B.	c #5957AF",
"C.	c #4A53EE",
"D.	c #534FED",
"E.	c #4B54EF",
"F.	c #5450EE",
"G.	c #5453E2",
"H.	c #4D55F0",
"I.	c #3F7D40",
"J.	c #5859BE",
"K.	c #595ABF",
"L.	c #5855EC",
"M.	c #5259EE",
"N.	c #5957E6",
"O.	c #5A56ED",
"P.	c #41824B",
"Q.	c #5B57EE",
"R.	c #517A58",
"S.	c #565EEC",
"T.	c #575DF3",
"U.	c #6063C1",
"V.	c #6163C2",
"W.	c #6264C3",
"X.	c #6365C4",
"Y.	c #645FF0",
"Z.	c #6567C6",
"`.	c #508851",
" +	c #4A8B53",
".+	c #696ACA",
"++	c #6267F6",
"@+	c #4E8F57",
"#+	c #6B6CCC",
"$+	c #4F9058",
"%+	c #6D6ECE",
"&+	c #656DEE",
"*+	c #686DF5",
"=+	c #7070D1",
"-+	c #696EF7",
";+	c #7671CC",
">+	c #6B6FF8",
",+	c #7070EC",
"'+	c #726EF2",
")+	c #56985E",
"!+	c #639167",
"~+	c #7370F4",
"{+	c #7477D0",
"]+	c #7571F5",
"^+	c #7573F0",
"/+	c #609960",
"(+	c #797BD6",
"_+	c #737BF6",
":+	c #669F66",
"<+	c #68A168",
"[+	c #709F74",
"}+	c #8082F1",
"|+	c #8084ED",
"1+	c #8488DC",
"2+	c #8286EF",
"3+	c #70AD79",
"4+	c #888BF5",
"5+	c #71AE7A",
"6+	c #72AF7B",
"7+	c #73B07C",
"8+	c #8C90E5",
"9+	c #74B17D",
"0+	c #8D91E6",
"a+	c #75B27E",
"b+	c #9291E1",
"c+	c #8F92E8",
"d+	c #76B37F",
"e+	c #9392E2",
"f+	c #9192EF",
"g+	c #77B480",
"h+	c #9593E3",
"i+	c #9295EB",
"j+	c #9394F1",
"k+	c #7AB682",
"l+	c #9795E6",
"m+	c #9497ED",
"n+	c #949BEA",
"o+	c #9699F0",
"p+	c #9B99EA",
"q+	c #959CEB",
"r+	c #989BF2",
"s+	c #7FBC87",
"t+	c #979DEC",
"u+	c #80BD88",
"v+	c #81BE89",
"w+	c #9B9EF4",
"x+	c #88BD89",
"y+	c #83C08B",
"z+	c #9CA2F2",
"A+	c #A2A3ED",
"B+	c #86C38E",
"C+	c #A3A4EE",
"D+	c #A4A5EF",
"E+	c #88C690",
"F+	c #89C791",
"                        -.].4.-.%.S %.-.                        ",
"                  F ].s.B.s.k.d.d.6.].$.I t K                   ",
"              F ].B.B.s.k.i.6.6.].$.S $.t I n p o               ",
"            F w.B.s.i.i.6.6.].%.$.M I t s f c : 6 g             ",
"          ].B.!.Q #.*.].6.$.S M I t I f b 6 6 ] ) * b           ",
"        S s.Q )+k+v+/+1.#.M I p j c 6 6 ] ~ , , & % % 0         ",
"      F i.Q <+F+F+F+E+v+x...n c b { 6 ~ , , & % # % # % 0       ",
"    F d.].(.E+E+B+[+u+F+x+u.*.{ 6 ~ ) * & # % % # % # # - g     ",
"    F ].].I.E+F+R.@ + F+E+v+x.*., * & % % % # # % % % % % 3     ",
"  t %.` $.}.B+E+/+. 7 E+F+E+v+u.*.% % # # % % # % # # # # % o   ",
"  t S F t *.:+F+E+E+F+F+E+F+E+v+q.#.# % % # # % % % % % % # g   ",
"  j I j j b #.3+F+E+F+F+E+F+F+E+v+m.#.# % # % # % # # % # % ~   ",
"j j j b : 6 W ..5+E+E+E+F+E+F+E+F+s+q.!.# % % % % % % # % % # o ",
"s b.U.V.J.v.v.W *.7+F+F+F+E+F+F+E+F+u+q.!.% # # # % # % # ( K.4.",
"X.D+z+D+z+z+t+b+#.!.7+E+F+E+F+E+F+E+F+v+x.*.% % % # o %+b+A+D+V.",
"Z.z+D+D+D+D+D+D+z+W !.9+E+F+E+F+E+F+E+F+v+x.*.0+b+8+A+t+o+p+A+Z.",
"c.'+,+^+}+4+f+r+C+D+..(.a+E+F+E+F+E+F+E+F+v+x...2+^+'+'+>+~+]+c.",
"7.S.*+'+++T.g.| q ,+f+W !.9+E+F+F+E+F+E+F+F+v+m.*.> _ J z.Y.,+p.",
"E > ^ ^ > > > > = = > | ..!.6+F+E+F+F+E+F+E+F+u+m..._ e k q @.v ",
"i > = > = > = > > > > > = #.*.7+F+E+E+F+E+F+E+E+v+q.#.q @.J  .D ",
"  [ > > > > > = > > = > > > ..!.7+E+F+F+E+F+F+F+E+v+x.!. . .9   ",
"  E = > > = > > = > > > = > > Q !.<+F+E+F+B+ +I.`./+`.Q *.8.'.  ",
"  y > > > > = > > > > > > = > > Q (.d+E+F+y+#.Q #...!.!.#.z.y   ",
"    5 > = > > > = > = > > > = > $ #.(.g+F+E+Q  . . .g.o.r.{.    ",
"    h _ > > > = > > > = > = < ^ e m ..(.g+E+*. .8.g.z.A.L.L     ",
"      L > > > > > > > > ^ _ | } k q @.W }.g+1.8.z.A.C.O.X       ",
"        +.> > = = > = ^ _ } r r @. . .8.W (.(.A.C.O.O.c.        ",
"          D > > > < ^ e m k q B  . .g.8.o.#.#.E.O.M.n.          ",
"            i [ ^ | } k q @.U  . .8.0.z.C.C.O.Q.N.).            ",
"              h 9 e r q  . . .8.8.z.A.F.H.O.M.7.R               ",
"                  i '.H 8. .g.o.z.D.O.O.G.p.X                   ",
"                        R ).).;.{.:.2.).                        "};
