/* XPM */
static char * main_window_xpm[] = {
"32 32 256 2",
"  	c None",
". 	c #00008A",
"+ 	c #00008B",
"@ 	c #03008C",
"# 	c #00068D",
"$ 	c #0302B3",
"% 	c #11009F",
"& 	c #140099",
"* 	c #00088E",
"= 	c #0C00BC",
"- 	c #0000E0",
"; 	c #0000E9",
"> 	c #000990",
", 	c #000A91",
"' 	c #1000C5",
") 	c #000B92",
"! 	c #000C93",
"~ 	c #0804E3",
"{ 	c #1A098E",
"] 	c #0F06E4",
"^ 	c #000AE9",
"/ 	c #110DA7",
"( 	c #1D0C90",
"_ 	c #110F9F",
": 	c #0F1290",
"< 	c #1408E5",
"[ 	c #131492",
"} 	c #181694",
"| 	c #1C1896",
"1 	c #0D1D97",
"2 	c #0119EA",
"3 	c #101E98",
"4 	c #2416AF",
"5 	c #131E99",
"6 	c #161F9A",
"7 	c #271F96",
"8 	c #241AD4",
"9 	c #201EBB",
"0 	c #282097",
"a 	c #231EC4",
"b 	c #2A2198",
"c 	c #2C19E7",
"d 	c #1521DE",
"e 	c #212599",
"f 	c #22269A",
"g 	c #1B21E8",
"h 	c #24279B",
"i 	c #1C24D8",
"j 	c #2022E9",
"k 	c #26289C",
"l 	c #2E21D2",
"m 	c #27299E",
"n 	c #2D23CA",
"o 	c #2127D3",
"p 	c #292A9F",
"q 	c #2A2AA0",
"r 	c #0E2BEC",
"s 	c #2624EC",
"t 	c #2D2BA8",
"u 	c #2629D5",
"v 	c #2D2D9B",
"w 	c #2B26EE",
"x 	c #272BCE",
"y 	c #2E2E9C",
"z 	c #302F9E",
"A 	c #2C29E7",
"B 	c #31309F",
"C 	c #2B2DD0",
"D 	c #2E2AE8",
"E 	c #3231A0",
"F 	c #312BE9",
"G 	c #3432A1",
"H 	c #332CEA",
"I 	c #3533A2",
"J 	c #3633A3",
"K 	c #2532EB",
"L 	c #2E37A4",
"M 	c #2732ED",
"N 	c #3038A5",
"O 	c #2A33EE",
"P 	c #3A36A6",
"Q 	c #3139A6",
"R 	c #3733D7",
"S 	c #2B35E7",
"T 	c #3C39A2",
"U 	c #363AB0",
"V 	c #3D3AA3",
"W 	c #3D33E9",
"X 	c #3F3BA4",
"Y 	c #3238EA",
"Z 	c #3F36E4",
"` 	c #3439EC",
" .	c #393FA6",
"..	c #343BE5",
"+.	c #363AED",
"@.	c #3B41A8",
"#.	c #383BEE",
"$.	c #3C3EE9",
"%.	c #473BE9",
"&.	c #4142B8",
"*.	c #4844A7",
"=.	c #4341F5",
"-.	c #4349AA",
";.	c #4548B1",
">.	c #4746EB",
",.	c #4D53AF",
"'.	c #5453E2",
").	c #4E56F1",
"!.	c #5056F9",
"~.	c #5855EC",
"{.	c #5954F3",
"].	c #605CB5",
"^.	c #5F5CEC",
"/.	c #6163C2",
"(.	c #5C62F0",
"_.	c #6665CB",
":.	c #6965D3",
"<.	c #6566E0",
"[.	c #676BC4",
"}.	c #6567FE",
"|.	c #6C70C9",
"1.	c #7071BD",
"2.	c #6B6EFF",
"3.	c #6A71F3",
"4.	c #6E70FF",
"5.	c #7472EF",
"6.	c #7672F6",
"7.	c #7779D4",
"8.	c #7078F3",
"9.	c #7B78E1",
"0.	c #7A7AF0",
"a.	c #7F7EE0",
"b.	c #8180E2",
"c.	c #8583C5",
"d.	c #827FFD",
"e.	c #8586E2",
"f.	c #8785E8",
"g.	c #8A8AC6",
"h.	c #8886FE",
"i.	c #8E8ECA",
"j.	c #41A0FF",
"k.	c #8C8CFD",
"l.	c #908DF1",
"m.	c #8F8FFF",
"n.	c #46A5FF",
"o.	c #9394F1",
"p.	c #8F95F8",
"q.	c #56A8FE",
"r.	c #55A9F8",
"s.	c #9396FF",
"t.	c #4CACFF",
"u.	c #989CD1",
"v.	c #5AAAFF",
"w.	c #58ABFB",
"x.	c #9B98FD",
"y.	c #5BAEFD",
"z.	c #979CFF",
"A.	c #989DFF",
"B.	c #5DAFFF",
"C.	c #65AEF8",
"D.	c #67AFF9",
"E.	c #9F9EFD",
"F.	c #5FB1FF",
"G.	c #A3A2D2",
"H.	c #60B2FF",
"I.	c #69B1FC",
"J.	c #A2A1FF",
"K.	c #6AB2FD",
"L.	c #6BB3FE",
"M.	c #69B5F8",
"N.	c #73B3F8",
"O.	c #6DB5FF",
"P.	c #A9A8D9",
"Q.	c #6EB6FF",
"R.	c #6FB7FF",
"S.	c #6DB8FB",
"T.	c #77B7FC",
"U.	c #6FBAFD",
"V.	c #79B8FE",
"W.	c #71BBFF",
"X.	c #77BAF8",
"Y.	c #73BDFF",
"Z.	c #79BCFA",
"`.	c #ADB0DA",
" +	c #ADADF8",
".+	c #74BEFF",
"++	c #7BBDFB",
"@+	c #83BEF7",
"#+	c #7EC0FE",
"$+	c #7FC1FF",
"%+	c #80C2FF",
"&+	c #86C1FA",
"*+	c #88C3FC",
"=+	c #8FC4F7",
"-+	c #8AC5FE",
";+	c #BABADE",
">+	c #B9B8F7",
",+	c #8BC6FF",
"'+	c #91C6FA",
")+	c #92C7FB",
"!+	c #94C9FC",
"~+	c #96CAFE",
"{+	c #9CCBF9",
"]+	c #99CEFF",
"^+	c #A5CEF7",
"/+	c #A0CFFD",
"(+	c #C7C6F8",
"_+	c #A3D2FF",
":+	c #A8D2FA",
"<+	c #CCCCE3",
"[+	c #ACD6FF",
"}+	c #B1D6F9",
"|+	c #B3D8FB",
"1+	c #D2D2E9",
"2+	c #B5D9FD",
"3+	c #B9DAF7",
"4+	c #B6DBFE",
"5+	c #B7DCFF",
"6+	c #BCDCF9",
"7+	c #D6D5FA",
"8+	c #B9DEFF",
"9+	c #D7D7EF",
"0+	c #BDDEFB",
"a+	c #D8D7FC",
"b+	c #BFE0FD",
"c+	c #C4E0F8",
"d+	c #DAD9FE",
"e+	c #DFDBED",
"f+	c #C2E2FF",
"g+	c #DFDAF9",
"h+	c #C7E3FB",
"i+	c #C9E5FD",
"j+	c #DDE1F2",
"k+	c #DDE0FE",
"l+	c #D0E4FE",
"m+	c #D3E7FF",
"n+	c #E4E3FB",
"o+	c #E1E5F5",
"p+	c #CEEAFF",
"q+	c #D2EAFC",
"r+	c #DDECFF",
"s+	c #ECE9FB",
"t+	c #DCF0FD",
"u+	c #ECECF7",
"v+	c #ECF0FF",
"w+	c #F0F0FB",
"x+	c #E7F3FF",
"y+	c #EAF3FB",
"z+	c #F3F1F5",
"A+	c #F2F3FD",
"B+	c #EFF7FF",
"C+	c #F6F6FF",
"D+	c #F4F9FC",
"E+	c #F6FBFE",
"F+	c #FCFAFE",
"G+	c #FEFFFC",
"                        . . . . . . . .                         ",
"                  . 1 k I @. .X X V Q m 3 : .                   ",
"              . 1 T @.@. .X X T Q L I G E y 0 1 .               ",
"            ( I @. . .X V T N I I G B g.o+G+G+G+u.(             ",
"          [ X  .X X V Q L I G E B y 9+G+Y.Q.Q.h+G+,.*           ",
"        * E X V T N I I G B y v p `.G+Q.5+r+m+B.G+i.: .         ",
"      . y V Q L I G E B y p p m ].G+%+W.5+5+[+Y.G+*.} { .       ",
"    . 5 N L I G E y v p p k h f ;+B+K.5+2+:+,+!+w+c.: : * .     ",
"    1 I G G B y v p m k f e b y G+5+Q.[+%+&+&+++f+1+( , * 1     ",
"  . 6 E y v p p k h f e 0 7 6 1.G+K._+~+!+I.'+:+_+G+-.* * # .   ",
"  1 p v p m k f e b 0 6 5 3 | P.B+Q.~+-+#+D.=+:+&+D+G.* * * 1   ",
"  k p m h f e 0 7 6 3 1 | } } j+0+F.%+Y.Q.r.@+2+%+4+e+* * * k   ",
". [ f f b 0 7 5 3 1 | } } [  .G+K.Q.Q.K.q.#+'+2+0+#+u+* , : * . ",
". U _.f.o.e.7.|.[.[./.;.P | P.B+y.L.B.F.y.N.V.2+l+#+z+&.:.9.t . ",
". 9.E.E.E.A.A.A.p.b.a.a.a.o.G+5+Q.B.B.B.I.*+!+2+6+-+F+A.A.A.9.. ",
". <.h.h.h.h.m.s.x.x.x.s.s.a+G+B.B.B.F.q.++W.!+c+6+%+A+k.d.d.<.. ",
". '.4.4.4.4.!.=.{.6.k.s.J.G+!+F.F.F.I.r.X.)+:+6+++b+ +=.!.}.'.. ",
". 8 w s s 2 < < - - < +.d+D+B.F.Q.Q.L.M.N.!+0+:+%+s+~.g g F 8 . ",
". = < < < - - - - ^ ; 3.G+B.K.V.Q.K.N.D.'+^+/+V.G+5.g g s r = . ",
". $ < - - - ^ ; ; ; K C+i+v.Y.Q.++Z.S.@+}+)+W.B+(+g s r D A $ . ",
"  . - - ^ ; ; ; ; g g+x+t.Y.B.D.N.++{+^+V.++G+7+K s D F H A .   ",
"  . ' ; ; ; ; ; K v+E+t.V.D.X.@+^+2+&+L.4+G+>+s r F H K K a .   ",
"  . % - ; ; ^ K v+D+y.#+&+3+c+*+L.W./+G+n+^.r D H K K W K / .   ",
"    . n ^ - W k+D+j.r.V.V.W.#+4+G+G+7+8.W D F H K W W S n .     ",
"    . & ' >.v+y+n.f+p+G+G+G+w+7+ +0.r D F H K K W Y +.S & .     ",
"      . P.G+t+n.q+G+>+l.).+.g g s r F H K K W Y +.Z +./ .       ",
"      G+D+,+B.B+w+(.c g g g s r D H K K W Y Y #...Z 4 .         ",
"  G+G+f+Y.q+G+<+i g g g s r D F H K W Y Y +.$.#..._ .           ",
"G+/+!+f+G+G+. _ C $.d r D F H K K W Y +.%.+.$.C _ .             ",
"  G+G+G+      . . 4 R +.+.Y Y Y Y Y Y +.+.R 4 . .               ",
"                  . . . 9 l o o u u C 9 . . .                   ",
"                        . . . . . . . .                         "};
