/* XPM */
static char * downloadManager_xpm[] = {
"32 32 255 2",
"  	c None",
". 	c #0037AC",
"+ 	c #082BE3",
"@ 	c #00476D",
"# 	c #292A9F",
"$ 	c #2A2AA0",
"% 	c #0E2BEC",
"& 	c #222FA2",
"* 	c #2430A3",
"= 	c #2D2CA2",
"- 	c #2D2E9C",
"; 	c #2530AA",
"> 	c #2524EB",
", 	c #2526E3",
"' 	c #2629D5",
") 	c #302F9E",
"! 	c #302EA4",
"~ 	c #31309F",
"{ 	c #292CCF",
"] 	c #15496B",
"^ 	c #2A32AE",
"/ 	c #2A28E6",
"( 	c #3231A0",
"_ 	c #2138A9",
": 	c #342DB3",
"< 	c #3330A6",
"[ 	c #3432A1",
"} 	c #3431A7",
"| 	c #2C2BE0",
"1 	c #2D36A3",
"2 	c #3631A8",
"3 	c #3630AF",
"4 	c #3533A2",
"5 	c #2E2AE8",
"6 	c #3633A3",
"7 	c #2E37A4",
"8 	c #2E36AA",
"9 	c #3732A9",
"0 	c #2F35B1",
"a 	c #1D40A9",
"b 	c #3834A4",
"c 	c #2431EB",
"d 	c #3038A5",
"e 	c #3037AB",
"f 	c #312BE9",
"g 	c #3A32B1",
"h 	c #322DE2",
"i 	c #3139A6",
"j 	c #2633E5",
"k 	c #332CEA",
"l 	c #3237B3",
"m 	c #3937A0",
"n 	c #333AA7",
"o 	c #3339AE",
"p 	c #3338B4",
"q 	c #2833ED",
"r 	c #05663B",
"s 	c #3C34B3",
"t 	c #3B38A1",
"u 	c #2243AC",
"v 	c #343BA8",
"w 	c #3C36AD",
"x 	c #2C3FAA",
"y 	c #2B37D8",
"z 	c #3539B5",
"A 	c #3C39A2",
"B 	c #3830E6",
"C 	c #3D3AA3",
"D 	c #1A6132",
"E 	c #373CAA",
"F 	c #383AB7",
"G 	c #096B33",
"H 	c #3E3BA4",
"I 	c #2746A9",
"J 	c #116737",
"K 	c #3A33E0",
"L 	c #383FA6",
"M 	c #3A36D3",
"N 	c #393DB2",
"O 	c #3B32E8",
"P 	c #403CA5",
"Q 	c #3243A9",
"R 	c #3139E2",
"S 	c #3A40A7",
"T 	c #3238EA",
"U 	c #433AB3",
"V 	c #3D33E9",
"W 	c #0D6D35",
"X 	c #196445",
"Y 	c #333CD6",
"Z 	c #3B41A8",
"` 	c #3439EC",
" .	c #1A6933",
"..	c #3C42A9",
"+.	c #343BE5",
"@.	c #3F4787",
"#.	c #363AED",
"$.	c #3D43AA",
"%.	c #4542A5",
"&.	c #383BEE",
"*.	c #186F31",
"=.	c #3C4C8C",
"-.	c #4743A6",
";.	c #3D4D8D",
">.	c #1B6E3D",
",.	c #4844A7",
"'.	c #3C3EE9",
").	c #3E4E8E",
"!.	c #453BE1",
"~.	c #1B7133",
"{.	c #3C40E3",
"].	c #4945A8",
"^.	c #4A45A9",
"/.	c #3E3FEA",
"(.	c #4A44AF",
"_.	c #473BE9",
":.	c #4349AA",
"<.	c #4448B0",
"[.	c #3F40EC",
"}.	c #464F8A",
"|.	c #454AAB",
"1.	c #4141ED",
"2.	c #464BAD",
"3.	c #3846EF",
"4.	c #474BAE",
"5.	c #48518C",
"6.	c #4342EE",
"7.	c #484CAF",
"8.	c #49528E",
"9.	c #45597A",
"0.	c #4A538F",
"a.	c #1F783F",
"b.	c #455690",
"c.	c #465A7B",
"d.	c #207940",
"e.	c #504DAA",
"f.	c #4746EB",
"g.	c #465892",
"h.	c #217A41",
"i.	c #514EAB",
"j.	c #474BD7",
"k.	c #4947EC",
"l.	c #1D7E3E",
"m.	c #534DB2",
"n.	c #524FAD",
"o.	c #4C52AE",
"p.	c #414CEE",
"q.	c #4A49E6",
"r.	c #534FAE",
"s.	c #4A48ED",
"t.	c #4D53AF",
"u.	c #424DEF",
"v.	c #4E53B0",
"w.	c #5550AF",
"x.	c #4C49EE",
"y.	c #4C4CE2",
"z.	c #444EF0",
"A.	c #5054B1",
"B.	c #5154B7",
"C.	c #5256B3",
"D.	c #514EEC",
"E.	c #4A53EE",
"F.	c #534FED",
"G.	c #4B54EF",
"H.	c #5450EE",
"I.	c #5453E2",
"J.	c #4D55F0",
"K.	c #595ABE",
"L.	c #4F58EC",
"M.	c #536A86",
"N.	c #5855EC",
"O.	c #5A56ED",
"P.	c #5B57EE",
"Q.	c #576F8A",
"R.	c #5A6D90",
"S.	c #5E6D8A",
"T.	c #575DF3",
"U.	c #58708B",
"V.	c #5B6E91",
"W.	c #6063C1",
"X.	c #3C8A57",
"Y.	c #5A728D",
"Z.	c #5C7093",
"`.	c #3A8F55",
" +	c #00AF4C",
".+	c #645FF0",
"++	c #647391",
"@+	c #15AE3D",
"#+	c #319D4C",
"$+	c #617894",
"%+	c #6267F6",
"&+	c #667990",
"*+	c #30A055",
"=+	c #1AB03F",
"-+	c #6D6ECE",
";+	c #677B9E",
">+	c #1AB054",
",+	c #687C9F",
"'+	c #2AAB51",
")+	c #686DF5",
"!+	c #697DA0",
"~+	c #2BAC52",
"{+	c #696EF7",
"]+	c #24B14E",
"^+	c #4C9A65",
"/+	c #6B6FF8",
"(+	c #726EF2",
"_+	c #4A9E62",
":+	c #479F69",
"<+	c #7370F4",
"[+	c #1EB760",
"}+	c #26B65A",
"|+	c #7571F5",
"1+	c #519F6A",
"2+	c #4AA36C",
"3+	c #3AB05C",
"4+	c #36B163",
"5+	c #50A468",
"6+	c #51A669",
"7+	c #737BF6",
"8+	c #34BC6C",
"9+	c #41BA6B",
"0+	c #8082F1",
"a+	c #46BE6F",
"b+	c #46C379",
"c+	c #888BF5",
"d+	c #53C37A",
"e+	c #9291E1",
"f+	c #55C57C",
"g+	c #73C36B",
"h+	c #9699F0",
"i+	c #60C987",
"j+	c #989BF2",
"k+	c #9B9EF4",
"l+	c #9CA2F2",
"m+	c #7BCC73",
"n+	c #6CCF94",
"o+	c #A2A3ED",
"p+	c #84C97F",
"q+	c #A4A5EF",
"r+	c #83CB87",
"s+	c #90D68B",
"t+	c #A6C8B1",
"u+	c #A7C9B2",
"v+	c #9AD78D",
"w+	c #B2CDB7",
"x+	c #AFDBB5",
"y+	c #BCD2C4",
"z+	c #B6DBB6",
"A+	c #B9D7C7",
"B+	c #C9D1DA",
"C+	c #CFECC8",
"D+	c #D9EAE3",
"E+	c #EFF5F7",
"F+	c #FEFFFC",
"                      * d n t t t d t 7 *                       ",
"                  4 C e.C.w.w.n.n.e.2.^.P 4 (                   ",
"              [ n C.C.w.w.o.e.e.2.^.,.:.Z %.H 4 ~               ",
"            4 o.C.w.o.o.e.e.2.^.:.-.%.Z P H C d t ~             ",
"          A A.A.w.o.e.2.e.^.,.-.%.Z %.H A t t 4 ( - ~           ",
"        d A.o.n.2.2.2.:.,.-.%.S L C t t 4 [ ~ ~ - # # (         ",
"      [ v.n.e.e.2.:.,.$.%.S P C A 1 t [ ~ ~ - - # - # - ~       ",
"    [ e.2.e.^.^.,.-.Z %.P C t 1 t [ ( - - # # - # - # # - *     ",
"    i 2.2.^.0.g.b.0.b.8.5.b.b.}.).).;.;.=.;.=.=.;.@.- - # ~     ",
"  ( :.^.:.%.S.B+B+B+B+B+B+B+B+y+B+B+B+B+y+B+B+y+B+M.# # # - ~   ",
"  4 ,.$.Z P S.E+E+E+E+E+E+E+E+E+E+F+E+E+E+E+E+F+E+S.- # - # [   ",
"~ A %.L L A U.E+E+E+F+E+E+F+E+E+E+E+E+E+F+E+E+E+E+Q.# - # - ~ - ",
"( L L A d t S.E+A+5+1+5+5+1+5+5+2+1+2+1+:+1+1+A+E+Q.- # # # # ( ",
"[ r.W.W.K.B.Y.E+w+_+C+m+s+C+v+m+F+F+F+F+F+F+^+w+E+S.# - # 7 K.b ",
"(.q+l+q+l+l+&+E+w+`.x+g+r+x+r+g+D+D+D+D+D+D+X.t+E+Q.P -+e+o+q+(.",
"<.l+q+q+q+q+&+E+y+d.h.h.d.d.d.d.d.d.a.d.a.d.a.y+F+$+o+k+h+j+o+<.",
"N (+<+7+0+c+$+F+E+E+E+F+E+E+E+E+E+E+E+E+F+E+E+E+E+++/+(+/+7+|+N ",
"z .+)+(+%+T.Z.E+E+F+E+E+E+F+E+E+F+E+E+E+E+E+E+E+E+R.h &.D..+(+N ",
"g > 5 5 , , R.F+E+E+E+E+F+E+E+E+E+E+F+E+F+E+F+E+E+V.h B O T _.g ",
"} , > , > > R.E+F+E+E+E+E+3+~+~+~+'+3+E+E+E+E+E+F+V.O T _.&./.; ",
"# { , , , , V.E+E+E+E+E+E+#+n+n+n+f+#+E+E+E+E+F+E+V._.#././.M < ",
"  3 > > > > 9.,+;+;+,+,+;+l.n+i+d+8+l.;+,+,+!+,+&+M.'././.f.s   ",
"  < , , , , + h h h + h h X i+d+8+3+r h K K R R {.{./.f.s.q.2   ",
"    : , > , , , > , > R ] >.b+a+[+>+J ] y _.#./././.s.q.z.z     ",
"    ! | , > > > , > , > . W 9+[+~+=+D a #.'././.f.s.D.D.y.8     ",
"      } , , , , , > , , 5 a ~.>+=+D x '././.f.f.D.D.E.O.8       ",
"        w , > > > , > 5 f q a *. .I /.f.f.s.p.D.E.O.O.b         ",
"          g , , , , 5 B B T T I I /.s.f.q.D.F.G.O.L.N           ",
"            ; | 5 k q T T _.'././.f.p.D.E.E.O.P.I.9             ",
"              ! 3 B V T /././.f.f.D.D.H.J.O.I.U 2               ",
"                  * p M f./.s.q.D.F.O.O.j.U 4                   ",
"                      ! 8 w w l w o o e ~                       "};
