/* XPM */
static char * editorWindow_xpm[] = {
"32 32 255 2",
"  	c None",
". 	c #151614",
"+ 	c #192026",
"@ 	c #030A0D",
"# 	c #2A2AA0",
"$ 	c #0E2BEC",
"% 	c #2330A2",
"& 	c #2C2D9B",
"* 	c #2D2CA2",
"= 	c #132DE6",
"- 	c #2E2E9C",
"; 	c #2530AA",
"> 	c #2524EB",
", 	c #27339F",
"' 	c #302F9E",
") 	c #302EA4",
"! 	c #2827E5",
"~ 	c #31309F",
"{ 	c #292CCF",
"] 	c #2A32AE",
"^ 	c #3231A0",
"/ 	c #342DB3",
"( 	c #2B35A2",
"_ 	c #3430A7",
": 	c #3432A1",
"< 	c #2D35A9",
"[ 	c #3631A8",
"} 	c #3533A2",
"| 	c #2E2BE0",
"1 	c #2E37A3",
"2 	c #2F2AE8",
"3 	c #3732A9",
"4 	c #2231EA",
"5 	c #3831B0",
"6 	c #3734A3",
"7 	c #2F37AB",
"8 	c #3138A6",
"9 	c #3136B2",
"0 	c #2532EC",
"a 	c #383899",
"b 	c #332CEA",
"c 	c #3937A0",
"d 	c #3B33B2",
"e 	c #333AA7",
"f 	c #333BA2",
"g 	c #3339AE",
"h 	c #3338B4",
"i 	c #3B38A1",
"j 	c #2A33EE",
"k 	c #343BA8",
"l 	c #3C36AD",
"m 	c #3C39A2",
"n 	c #3639B6",
"o 	c #2D38D9",
"p 	c #3D3AA3",
"q 	c #373CAA",
"r 	c #3E3BA4",
"s 	c #3A31E8",
"t 	c #3A33E0",
"u 	c #383FA6",
"v 	c #393DB2",
"w 	c #403CA5",
"x 	c #3A40A7",
"y 	c #3C37D4",
"z 	c #3238EA",
"A 	c #463E95",
"B 	c #433AB3",
"C 	c #3D33E9",
"D 	c #333CD6",
"E 	c #3B41A8",
"F 	c #3439EC",
"G 	c #3C42A9",
"H 	c #363AED",
"I 	c #3D43AA",
"J 	c #3748A7",
"K 	c #2F4CA9",
"L 	c #383BEE",
"M 	c #4642A6",
"N 	c #4844A7",
"O 	c #3C43CE",
"P 	c #464997",
"Q 	c #2B53AF",
"R 	c #3D3FEA",
"S 	c #4640CE",
"T 	c #4A45A9",
"U 	c #473BE9",
"V 	c #4B44AF",
"W 	c #4448B0",
"X 	c #4449AB",
"Y 	c #3F40EC",
"Z 	c #464BAD",
"` 	c #3846EF",
" .	c #4242EE",
"..	c #4246DA",
"+.	c #474CAE",
"@.	c #4C46CD",
"#.	c #3C48F1",
"$.	c #4C48C8",
"%.	c #4547E3",
"&.	c #514DAB",
"*.	c #474BD7",
"=.	c #4847EB",
"-.	c #534DB2",
";.	c #524FAD",
">.	c #4E4FBA",
",.	c #4A49E6",
"'.	c #555397",
").	c #414DEE",
"!.	c #4D53AF",
"~.	c #5450AE",
"{.	c #4B49EE",
"].	c #4C4CE2",
"^.	c #444EF0",
"/.	c #5054B1",
"(.	c #4D4EDC",
"_.	c #5154B7",
":.	c #5256B3",
"<.	c #524EEC",
"[.	c #4B53EF",
"}.	c #5450EE",
"|.	c #3869B8",
"1.	c #5453E2",
"2.	c #5956C9",
"3.	c #4D55F0",
"4.	c #5859BE",
"5.	c #5B55D0",
"6.	c #4F58EC",
"7.	c #5956ED",
"8.	c #625CBC",
"9.	c #3F70B9",
"0.	c #6460B9",
"a.	c #575DF3",
"b.	c #4274B7",
"c.	c #6063C1",
"d.	c #4373BD",
"e.	c #6D6694",
"f.	c #6D6F6C",
"g.	c #6665B7",
"h.	c #645FF0",
"i.	c #497ABD",
"j.	c #727471",
"k.	c #717578",
"l.	c #736F97",
"m.	c #6267F6",
"n.	c #607C9D",
"o.	c #6D6ECE",
"p.	c #696EF6",
"q.	c #7875A9",
"r.	c #7A73AF",
"s.	c #5383C7",
"t.	c #6B6FF8",
"u.	c #7A77AC",
"v.	c #5486C4",
"w.	c #736FF3",
"x.	c #7E807D",
"y.	c #7571F5",
"z.	c #817AA9",
"A.	c #7573F0",
"B.	c #817D9A",
"C.	c #5B8CCA",
"D.	c #858292",
"E.	c #85819E",
"F.	c #7F7BD0",
"G.	c #737BF6",
"H.	c #8B8685",
"I.	c #5D91C9",
"J.	c #8A888C",
"K.	c #8B8798",
"L.	c #8E8792",
"M.	c #90878D",
"N.	c #8A8C89",
"O.	c #8A8B94",
"P.	c #938A90",
"Q.	c #8082F1",
"R.	c #928C8B",
"S.	c #6898C4",
"T.	c #8D8E97",
"U.	c #6A97CA",
"V.	c #938C97",
"W.	c #8488DC",
"X.	c #8286EF",
"Y.	c #929094",
"Z.	c #929491",
"`.	c #99929E",
" +	c #888BF5",
".+	c #9494AA",
"++	c #9B9694",
"@+	c #9C95A1",
"#+	c #8D91E6",
"$+	c #9994BE",
"%+	c #9E9998",
"&+	c #9391E1",
"*+	c #9E98A3",
"=+	c #9C99AA",
"-+	c #9394F1",
";+	c #9D98C3",
">+	c #78A8D4",
",+	c #9EA09D",
"'+	c #A39E9D",
")+	c #9497ED",
"!+	c #A1A3A0",
"~+	c #A1A2AB",
"{+	c #989BF1",
"]+	c #979DEC",
"^+	c #83ADD4",
"/+	c #AAA3AE",
"(+	c #9B9EF4",
"_+	c #A9A7AB",
":+	c #ADA7A6",
"<+	c #9CA2F2",
"[+	c #A0ACB9",
"}+	c #A2A3ED",
"|+	c #B0ABA9",
"1+	c #ABACB6",
"2+	c #A4A5EF",
"3+	c #B5AFAE",
"4+	c #B1B1BB",
"5+	c #96BADD",
"6+	c #B4B6B3",
"7+	c #B9B4B2",
"8+	c #9FBFDB",
"9+	c #A2C2DE",
"0+	c #C0BAB9",
"a+	c #BCBEBB",
"b+	c #C1BCBA",
"c+	c #BFBDC1",
"d+	c #C4C1C5",
"e+	c #C6C1C0",
"f+	c #C4C6C3",
"g+	c #CAC4C3",
"h+	c #CCC6C5",
"i+	c #CAC7CB",
"j+	c #CEC9C7",
"k+	c #D0CBC9",
"l+	c #D2CDCC",
"m+	c #D1CED3",
"n+	c #D6D0CF",
"o+	c #D8D3D2",
"p+	c #DDD7D6",
"q+	c #E0DAD9",
"r+	c #E1DCDB",
"s+	c #E3DEDC",
"t+	c #E7E1E0",
"u+	c #EDE7E6",
"v+	c #EFEAE8",
"w+	c #EDEFEB",
"x+	c #F2EDEB",
"y+	c #EFF1EE",
"z+	c #F8F2F1",
"A+	c #F3F5F2",
"B+	c #F6F8F5",
"C+	c #FDF7F6",
"D+	c #F9FBF8",
"E+	c #FBFDFA",
"F+	c #FEFFFC",
"                      % e e i i e e 6 6 %                       ",
"                  } p &.:./.~.;.!.&.Z T w 1 ^                   ",
"              : e :.0./.~.!.&.&.Z T N N x M r } ~               ",
"            } ;.:./.!.!.&.&.Z T X N N E w r p f i ~             ",
"          m /.0.~.!.&.+.&.T N I N E M r m J i.b.^ - ~           ",
"        e /.!.&.+.+.X X N N N x u p i i e v.9+d.& & & ^         ",
"      : ;.&.&.&.X X N E E x w p m 1 i : |.8+5+Q # & # & ^       ",
"    : +.+.&.T T N N E M w p i 1 i : ^ Q ^+9+I.- # & # # - %     ",
"    e +.X T N N E x w p i i i : ~ - 1 I.9+8+|.# & # & & & ^     ",
"  ^ X X X I M x w p e i i ^ - - ) # d.8+9+v.( # & # # # # & ~   ",
"  } N I E w r p i 1 } e.D.l.'.A - ~ U.9+>+K # & & & & & & # :   ",
"~ m M u u m i 1 } ^ i M.v+r+d+~+T.n.8+8+d.a & # # # # & # & ~ & ",
"^ u u m e i } ^ ~ - P /+F+F+F+F+w+@ + S.[+@+J.c & # & # & # # ^ ",
": -.c.c.4._._._.>.W B.s+r+d+p+w+x.f.. [+F+E+J.# # & # & # 6 4.6 ",
"V 2+<+2+<+<+]+#+W.F.Y.F+z+m+0+H.7+d+k.k+v+x+D.& & # w o.#+}+2+I ",
"W <+2+2+2+2+2+2+<+;+c+B+i+s+A+!+Z.c+3+i+o+s+.+#+&+#+}+]+{+{+}+W ",
"B w.w.A.Q. +#+]+}+`.x+C+i+4+'+H.N.R.o+v+F+i+$+)+X.A.p.w.t.A.y.v ",
"h h.p.w.m.a.=.b S *+F+F+F+F+F+k.'+g+c+7+F+4+$.> 2 > 4 L <.h.w.v ",
"d > ! ! 2 2 > 2 g.k+F+3+~+4+j+r+z+F+F+F+F+*+D 2 ! 2 4 C z z U ; ",
"[ 2 > > > > > 2 L.B+F+F+z+s+j+4+'+++_+u+F+V.= 2 4 4 C z U L R ; ",
"# { 2 > 2 2 2 O ~+F+r+m+u+B+F+F+F+E+v+B+C+O.2 s C z U H R  .D ) ",
"  5 > > > > > u.r+F+u+i+_+*+++|+e+o+z+F+y+z.C z z U R R  .=.h   ",
"  < | > 2 2 | O.C+F+F+F+F+F+D+u+m+c+o+F+r+q.C L R R  .=.).,.<   ",
"    / > > > y q.K.V.~+j+t+D+F+F+F+F+F+F+k+0.H R  . .=.=.).h     ",
"    ) | 2 > > > 2 | S 4.u.K.V.~+i+t+B+F+3+2. . .=.=.<.<.].[     ",
"      [ ! > 2 2 > > > 2 ! 4 t @.8.z.L.V.P.(.=.=.,.<.}.3.<       ",
"        l > > > > 2 > 2 2 4 C C U R R =.2.,.,.<.}.7.7.q         ",
"          9 ! 2 > ! 2 s C z z H R R =.=.=.<.3.].7.6.v           ",
"            ; | 2 b 4 z z U R  . .=.=.<.3.].7.7.1.3             ",
"              ) 5 s C z R R  .=.=.).<.3.3.7.1.B <               ",
"                  ) d y  . .=.=.<.<.3.7.@.B 6                   ",
"                      ) < l l 9 l g g 7 ~                       "};
