/* XPM */
static char * findHistoryWindow_xpm[] = {
"32 32 255 2",
"  	c None",
". 	c #302891",
"+ 	c #272A97",
"@ 	c #1F2ABB",
"# 	c #2A2A9F",
"$ 	c #2B22C9",
"% 	c #2A2C99",
"& 	c #222FA2",
"* 	c #2127D3",
"= 	c #5D282E",
"- 	c #652722",
"; 	c #2430A3",
"> 	c #67271E",
", 	c #2325E3",
"' 	c #5F292A",
") 	c #2E2CA2",
"! 	c #632730",
"~ 	c #2E2E9C",
"{ 	c #2530AA",
"] 	c #2524EB",
"^ 	c #472589",
"/ 	c #632A23",
"( 	c #622A27",
"_ 	c #4A267E",
": 	c #2528DC",
"< 	c #3225CD",
"[ 	c #302EA4",
"} 	c #2727E5",
"| 	c #6C2B17",
"1 	c #31309E",
"2 	c #672D1B",
"3 	c #292CCF",
"4 	c #2A32AE",
"5 	c #373482",
"6 	c #2A28E6",
"7 	c #3231A0",
"8 	c #342DB3",
"9 	c #3330A6",
"0 	c #33339A",
"a 	c #5F322A",
"b 	c #3432A1",
"c 	c #702D19",
"d 	c #2C2BE0",
"e 	c #2D2CD8",
"f 	c #3531A8",
"g 	c #5B2F50",
"h 	c #39387F",
"i 	c #3633A2",
"j 	c #2F2AE8",
"k 	c #2F37A4",
"l 	c #3732A9",
"m 	c #2F36AA",
"n 	c #2F35B1",
"o 	c #2231EA",
"p 	c #3831B0",
"q 	c #623043",
"r 	c #3834A4",
"s 	c #373893",
"t 	c #792F12",
"u 	c #3139A6",
"v 	c #2632EC",
"w 	c #373C89",
"x 	c #332CEA",
"y 	c #62324A",
"z 	c #39379F",
"A 	c #3B33B2",
"B 	c #3D3B83",
"C 	c #323BA1",
"D 	c #333AA7",
"E 	c #3339AE",
"F 	c #3338B4",
"G 	c #413E74",
"H 	c #2A33EE",
"I 	c #3C36AD",
"J 	c #3B3A9B",
"K 	c #57337A",
"L 	c #363DA4",
"M 	c #843111",
"N 	c #3D3AA3",
"O 	c #3833D8",
"P 	c #3E39A9",
"Q 	c #383AB7",
"R 	c #3E3BA4",
"S 	c #86330B",
"T 	c #3A31E8",
"U 	c #383FA6",
"V 	c #3A36D3",
"W 	c #393DB2",
"X 	c #403CA5",
"Y 	c #88340D",
"Z 	c #3F3F9A",
"` 	c #3238EB",
" .	c #8A3606",
"..	c #433AB3",
"+.	c #3D33E9",
"@.	c #333CD6",
"#.	c #3B41A8",
"$.	c #454771",
"%.	c #444681",
"&.	c #40468D",
"*.	c #474777",
"=.	c #3D43AA",
"-.	c #4A486D",
";.	c #373AED",
">.	c #92370B",
",.	c #474689",
"'.	c #413ECB",
").	c #4B4C6B",
"!.	c #4F4B66",
"~.	c #474B80",
"{.	c #3B3EE9",
"].	c #4844A7",
"^.	c #4C4B7C",
"/.	c #4A45A9",
"(.	c #3E3FEA",
"_.	c #524F5E",
":.	c #4A44AF",
"<.	c #505159",
"[.	c #6D4936",
"}.	c #473BE9",
"|.	c #4448B0",
"1.	c #4449AB",
"2.	c #4D4E79",
"3.	c #4040EC",
"4.	c #4C49A6",
"5.	c #505461",
"6.	c #3846EF",
"7.	c #54545D",
"8.	c #535367",
"9.	c #4342EE",
"0.	c #474CAE",
"a.	c #4B44D3",
"b.	c #555379",
"c.	c #545574",
"d.	c #5447C2",
"e.	c #4F5585",
"f.	c #514DAB",
"g.	c #545384",
"h.	c #57576B",
"i.	c #474BD7",
"j.	c #4847EB",
"k.	c #534DB2",
"l.	c #58557C",
"m.	c #524FAD",
"n.	c #414CEE",
"o.	c #4A49E6",
"p.	c #4A48ED",
"q.	c #4D53AF",
"r.	c #5450AE",
"s.	c #4C49EE",
"t.	c #4C4CE2",
"u.	c #524DCD",
"v.	c #444EF0",
"w.	c #5054B1",
"x.	c #5D5E66",
"y.	c #5256B3",
"z.	c #5B5C7B",
"A.	c #504DEB",
"B.	c #564FD1",
"C.	c #5D5D7D",
"D.	c #524FED",
"E.	c #4B54EF",
"F.	c #61626A",
"G.	c #5453E2",
"H.	c #5F6371",
"I.	c #5E627B",
"J.	c #595ABF",
"K.	c #4F58EC",
"L.	c #60629A",
"M.	c #5A56ED",
"N.	c #595CD5",
"O.	c #67677C",
"P.	c #635FB8",
"Q.	c #666983",
"R.	c #565EEC",
"S.	c #686888",
"T.	c #6B6C75",
"U.	c #706C6A",
"V.	c #6A6D87",
"W.	c #5F65D1",
"X.	c #706D7D",
"Y.	c #6F6C87",
"Z.	c #645FF0",
"`.	c #6F6F84",
" +	c #737388",
".+	c #75767F",
"++	c #737785",
"@+	c #6D6ECE",
"#+	c #76768B",
"$+	c #797A83",
"%+	c #7C7889",
"&+	c #6A6FF8",
"*+	c #797D8B",
"=+	c #726FF3",
"-+	c #7D7E87",
";+	c #7479CC",
">+	c #7571F5",
",+	c #7573F0",
"'+	c #80818A",
")+	c #7D81A8",
"!+	c #84858E",
"~+	c #88868A",
"{+	c #878891",
"]+	c #8D8F8C",
"^+	c #8688D0",
"/+	c #8E8F98",
"(+	c #90928F",
"_+	c #909497",
":+	c #939592",
"<+	c #9B999D",
"[+	c #999B98",
"}+	c #9291E1",
"|+	c #9196D7",
"1+	c #9E9CA0",
"2+	c #9A9FA1",
"3+	c #9EA09D",
"4+	c #A19EA2",
"5+	c #9699F0",
"6+	c #9FA4A6",
"7+	c #999DF3",
"8+	c #9CA2F2",
"9+	c #A8AAA7",
"0+	c #A2A3ED",
"a+	c #ABADAA",
"b+	c #A4A5EF",
"c+	c #AEACB0",
"d+	c #AEB0AD",
"e+	c #B1B3B0",
"f+	c #B4B6B3",
"g+	c #B7BAB6",
"h+	c #BDBFBC",
"i+	c #BEC1BD",
"j+	c #C1C3BF",
"k+	c #C3C5C2",
"l+	c #C1C6C9",
"m+	c #C2C7CA",
"n+	c #C8CAC7",
"o+	c #CBCDCA",
"p+	c #CACFD2",
"q+	c #CED0CC",
"r+	c #D0D2CF",
"s+	c #CED3D6",
"t+	c #D1D4D0",
"u+	c #D4D6D3",
"v+	c #D8DAD7",
"w+	c #DADCD9",
"x+	c #DCDEDB",
"y+	c #DEE1DD",
"z+	c #E0E2DF",
"A+	c #E2E4E1",
"B+	c #E6E8E5",
"C+	c #E7E9E6",
"D+	c #E8EAE7",
"E+	c #E9EBE8",
"F+	c #EAECE9",
"                      ; r D D z z k z k ;                       ",
"                  i N 0.y.w.r.m.q.0.4.1.L i 7                   ",
"              b D y.P.w.r.q.f.q.%.e.z.I.2.B N i 1               ",
"            i m.y.w.q.q.f.f.,.O.e+n+i+n+t+a+X.5 z 1             ",
"          N w.P.r.q.f.0.4.g.<+f+B+C+w+x+D+B+q+1+*.~ 1           ",
"        k w.q.f.0.4.1.1.%.4+y+u+C+F+E+F+F+F+A+B+c+h # 7         ",
"      b m.f.f.0.1.1.].w -+j+E+E+F+F+j+h+F+F+E+E+i+%+. # 1       ",
"    b 0.0.0././.].].#.^.l+v+F+F+F+F+e+c+F+E+F+F+v+l+~.+ ~ ;     ",
"    u 4.1./.].].#.U L C.y+E+F+F+F+F+i+l+F+F+E+F+E+y+C.# % 1     ",
"  7 1.1.1.=.].U X N z %+w+D+E+F+F+F+f+g+F+F+F+E+E+s+X.+ # # 1   ",
"  i ].=.#.X L N z k 0 %+c+E+F+F+F+F+:+d+F+F+F+F+E+g+.++ % # b   ",
"1 D #.U R N Z s b 7 0 Q.z+E+F+E+F+y+(+F+F+F+F+F+E+A+X.# # % 1 ) ",
"7 U R J $.7.F.T.<.G % b.t+C+F+E+F+]+y+F+F+F+F+F+D+v+b.+ % # # 7 ",
"b k.P.5.4+s+t+t+q+{+8.5 ~+a+s+F+f+9+F+E+F+F+E+D+a+c+h % # k J.D ",
":.b+V.6+s+s+s+s+t+t+'+L.Y.p+B+E+/+y+F+F+F+E+F+B+p+c.N @+}+0+b+:.",
"|.8+F.t+t+t+s+t+s+s+p+F.|+{+s+o+B+F+E+F+E+B+q+s+'+^+0+7+5+7+0+|.",
"W W.$+s+s+t+s+t+t+s+s+x.0+|+ +<+y+B+s+x+C+w+4+++;+,+&+=+&+,+>+W ",
"F N.X.t+s+s+t+s+s+t+t+x.8+b+0+)+*+~+[+_+'+Y.P ] 6 6 o ;.A.Z.>+W ",
"A } 8.p+t+t+s+t+s+s+k+).o.R.A.` ] : 8 $ } ] 6 6 6 j o +.` ` }.{ ",
"9 6 J /+s+s+s+t+t+t+U.a _ } 6 ] 6 ] ] 6 ] 6 ] 6 o o +.` }.;.(.{ ",
"; 3 } $.'+q+t+s+m+U.<.>.t = < 6 6 ] 6 6 ] j j T +.` }.;.(.(.@.9 ",
"  p ] ] J ).h.8.).a >.>. . ./ < 6 ] 6 6 o o +.` ` }.{.(.(.j.F   ",
"  9 } 6 6 6 } ] 6 0 t >.>.>.Y / < 6 6 j T +.+.;.(.(.(.j.n.o.9   ",
"    8 6 ] 6 6 6 ] } = S >.>. .Y - e T +.` }.;.(.(.(.j.j.v.F     ",
"    [ d 6 ] ] ] 6 6 : ' M >.>.>. .( O ` ;.{.(.(.j.j.A.A.t.m     ",
"      9 } 6 6 6 6 ] 6 : ' S >. .>.S y {.(.(.j.j.A.A.D.M.l       ",
"        I 6 ] ] ] 6 ] 6 e ' S >.>.>.| '.j.j.n.A.D.M.M.P         ",
"          p } 6 6 j j T +.O ( t >.>.Y q j.A.E.E.M.K.W           ",
"            { d j x o ` ` }.O K 2 Y  .c u.E.M.M.G.m             ",
"              [ p T +.` (.(.(.j.a.y c 2 d.M.G...l               ",
"                  ; F V j.(.j.j.A.D.u.u.i...m                   ",
"                      [ l I I F I E E I [                       "};
