/* XPM */
static char * findBookmarkWindow_xpm[] = {
"32 32 255 2",
"  	c None",
". 	c #141E16",
"+ 	c #233223",
"@ 	c #0C2AEC",
"# 	c #2A2A9F",
"$ 	c #65251C",
"% 	c #2A2D93",
"& 	c #672618",
"* 	c #2B3089",
"= 	c #682713",
"- 	c #5D282E",
"; 	c #642626",
"> 	c #2D26BC",
", 	c #2330A2",
"' 	c #3528A1",
") 	c #52294E",
"! 	c #472872",
"~ 	c #2E2CA2",
"{ 	c #020501",
"] 	c #6B290F",
"^ 	c #2530AA",
"/ 	c #412889",
"( 	c #3726AF",
"_ 	c #2524EB",
": 	c #552854",
"< 	c #3026C4",
"[ 	c #2628DC",
"} 	c #2727E5",
"| 	c #31309E",
"1 	c #5F340F",
"2 	c #322FA5",
"3 	c #292CCF",
"4 	c #323299",
"5 	c #363777",
"6 	c #3331A0",
"7 	c #342DB3",
"8 	c #1E30E1",
"9 	c #6D300D",
"0 	c #2C33AF",
"a 	c #3431A7",
"b 	c #2C2BE0",
"c 	c #762C15",
"d 	c #772D11",
"e 	c #3633A3",
"f 	c #3632A9",
"g 	c #353791",
"h 	c #6C340E",
"i 	c #2F36AA",
"j 	c #2231EA",
"k 	c #3831B0",
"l 	c #302BE9",
"m 	c #3D3B70",
"n 	c #303A99",
"o 	c #3038A5",
"p 	c #7A2F0C",
"q 	c #3C3A82",
"r 	c #2632EC",
"s 	c #3B33B2",
"t 	c #333AA7",
"u 	c #3339AE",
"v 	c #3338B4",
"w 	c #6F3717",
"x 	c #79340C",
"y 	c #3B38A1",
"z 	c #394D37",
"A 	c #3C36AD",
"B 	c #294B75",
"C 	c #843109",
"D 	c #214F78",
"E 	c #353E9E",
"F 	c #3F3F80",
"G 	c #7A3515",
"H 	c #444267",
"I 	c #3E3AA3",
"J 	c #383AB7",
"K 	c #434272",
"L 	c #2E38E1",
"M 	c #3A31E7",
"N 	c #49474B",
"O 	c #2D5163",
"P 	c #3A36D3",
"Q 	c #393FA6",
"R 	c #393DB2",
"S 	c #403CA5",
"T 	c #88340D",
"U 	c #43456E",
"V 	c #434284",
"W 	c #334E73",
"X 	c #433AB3",
"Y 	c #3D33E9",
"Z 	c #2B5370",
"` 	c #8B3606",
" .	c #333CD6",
"..	c #3B41A8",
"+.	c #474A58",
"@.	c #494A53",
"#.	c #3439EB",
"$.	c #4A4C4A",
"%.	c #4340A3",
"&.	c #3D42AA",
"*.	c #773E23",
"=.	c #514B45",
"-.	c #3D5B26",
";.	c #295D57",
">.	c #494A69",
",.	c #3D46A0",
"'.	c #92370B",
").	c #4C4D55",
"!.	c #383BEE",
"~.	c #385278",
"{.	c #524D4C",
"].	c #2E5970",
"^.	c #4643A6",
"/.	c #296155",
"(.	c #3A3FE1",
"_.	c #315875",
":.	c #2A692E",
"<.	c #2C5D69",
"[.	c #326240",
"}.	c #525054",
"|.	c #4945A9",
"1.	c #4A44AF",
"2.	c #3D48BD",
"3.	c #473BE9",
"4.	c #306352",
"5.	c #2D6B30",
"6.	c #316548",
"7.	c #3E40EB",
"8.	c #4448B0",
"9.	c #724A28",
"0.	c #4449AB",
"a.	c #335C74",
"b.	c #3C5A68",
"c.	c #444BA6",
"d.	c #346257",
"e.	c #52525B",
"f.	c #316A35",
"g.	c #3E4CB3",
"h.	c #2B6D37",
"i.	c #32683F",
"j.	c #575251",
"k.	c #3E5682",
"l.	c #405872",
"m.	c #704E29",
"n.	c #2F6E32",
"o.	c #385F6C",
"p.	c #4F5854",
"q.	c #4242EE",
"r.	c #474CAE",
"s.	c #3A47F0",
"t.	c #40653F",
"u.	c #4052A5",
"v.	c #385E7C",
"w.	c #46519E",
"x.	c #356D38",
"y.	c #3F5C7B",
"z.	c #434EBD",
"A.	c #4547E3",
"B.	c #465A7B",
"C.	c #4846EB",
"D.	c #5A585C",
"E.	c #3E5E89",
"F.	c #474BD7",
"G.	c #425A99",
"H.	c #534DB2",
"I.	c #524FAD",
"J.	c #4D52AE",
"K.	c #4A48ED",
"L.	c #415E90",
"M.	c #4E5793",
"N.	c #434DEF",
"O.	c #416C50",
"P.	c #4C49EE",
"Q.	c #35763F",
"R.	c #4C4CE2",
"S.	c #5054B1",
"T.	c #3C743F",
"U.	c #5154B7",
"V.	c #5457A1",
"W.	c #5156B3",
"X.	c #5E6253",
"Y.	c #455DB6",
"Z.	c #60625F",
"`.	c #524FED",
" +	c #636165",
".+	c #4B54EF",
"++	c #5453E2",
"@+	c #437B45",
"#+	c #595ABE",
"$+	c #64646D",
"%+	c #4F58EC",
"&+	c #78653A",
"*+	c #5955EC",
"=+	c #477F49",
"-+	c #517A58",
";+	c #507678",
">+	c #575DF3",
",+	c #6063C1",
"'+	c #645FF0",
")+	c #4D8857",
"!+	c #508851",
"~+	c #6F7873",
"{+	c #6267F6",
"]+	c #4F9057",
"^+	c #79777B",
"/+	c #60837F",
"(+	c #6D6ECE",
"_+	c #656DEE",
":+	c #767B7E",
"<+	c #696EF7",
"[+	c #56985E",
"}+	c #639167",
"|+	c #736FF3",
"1+	c #7573F0",
"2+	c #609960",
"3+	c #8379BC",
"4+	c #737BF6",
"5+	c #6F9975",
"6+	c #67A067",
"7+	c #8381C3",
"8+	c #709F74",
"9+	c #7C84E5",
"0+	c #7E9B6E",
"a+	c #8082F1",
"b+	c #8E9295",
"c+	c #84A173",
"d+	c #70AC79",
"e+	c #888BF5",
"f+	c #959A9C",
"g+	c #74B17D",
"h+	c #9291E1",
"i+	c #8F92E8",
"j+	c #7AB285",
"k+	c #999EA0",
"l+	c #78B581",
"m+	c #9394F1",
"n+	c #83B784",
"o+	c #9FA4A6",
"p+	c #989BF2",
"q+	c #979DEC",
"r+	c #80BE89",
"s+	c #A3A8AB",
"t+	c #88BD89",
"u+	c #9CA2F2",
"v+	c #85C28D",
"w+	c #A2A3ED",
"x+	c #8CC18D",
"y+	c #A4A5EF",
"z+	c #AAAFB1",
"A+	c #89C791",
"B+	c #B0B5B7",
"C+	c #BFC5C7",
"D+	c #C3C8CB",
"E+	c #C9CED1",
"F+	c #CED3D6",
"                      , o t y y y o y o ,                       ",
"                  6 I I.W.I.I.I.I.I.r.|.S 6 6                   ",
"              6 t W.W.I.I.J.c.I.r.|.|.0...%.I 6 |               ",
"            6 I.V.M.J.J.c.I.r.|.0.^.^...S I I o y |             ",
"          y B.i.:.5.i.l.w.|.|.^.^...%.E q U K 5 4 % |           ",
"        o B.:.[+l+r+2+x.[.I.^.%.Q Q F ).:+o+b+:+@.5 # 6         ",
"      6 w.:.6+A+A+A+A+r+T.[.,.I I K $+D+F+F+F+F+C+$+5 | 6       ",
"    o r.~.x.A+A+v+8+r+A+t+T.[.g g }.F+F+F+F+F+F+F+E+e.* | ,     ",
"    y r.b.Q.A+A+-+{ + A+x+r+T.[.>.o+F+F+F+F+F+F+F+F+s+>.# 6     ",
"  6 0.|.~.x.A+x+2+. z A+A+A+r+Q.p.E+F+F+F+F+F+F+F+F+D+@.# | |   ",
"  6 ^.&.E i.6+A+A+x+A+A+x+A+A+r+$.F+F+F+F+F+F+F+F+F+F+N # # 6   ",
"| y %.Q Q W x.d+A+A+A+A+A+A+A+A+p.D+F+F+F+F+F+F+F+F+C+e.# # | ~ ",
"| Q Q y o y O 5.g+A+A+x+A+x+A+v+X.k+F+F+F+F+F+F+F+F+b+H # # # 6 ",
"6 H.,+,+#+U.U.o.5.g+A+A+A+A+t+9.w {.C+F+F+F+F+F+F+D+N | # o #+e ",
"1.y+u+y+u+u+q+h+;+5.g+A+A+c+h C '.*.j.z+F+F+F+F+B+).V (+h+w+y+1.",
"8.u+y+y+y+y+y+y+u+/+x.g+0+w T '.'.'.w {.X.~+:+e.e.7+w+p+p+p+w+8.",
"R |+|+1+a+e+i+q+w+y+d.-.9 T '.` '.'.9 c+j+5+t.O.9+1+<+|+<+1+|+R ",
"v '+<+|+{+>+K.l L 1+3+] T '.'.'.'.x &+A+A+A+r+Q.d.[ l #.`.'+_+R ",
"s } l @ } } } } _ > & ` '.` '.'.x m.x+x+A+x+A+r+T.;.8 M M Y 3.^ ",
"a } _ } _ } _ } < = ` '.` '.'.p m.v+x+A+A+A+x+A+r+Q.d.L 3.#.7.^ ",
", 3 } } } } } [ ; T ` '.'.'.p 1 d+A+A+A+A+A+A+A+A+r+T.4.A.7.P 2 ",
"  k _ } } _ } : 9 '.'.'.` p - B f.6+A+A+A+v+)+=+)+]+!+:.4.A.v   ",
"  2 } } } } [ = '.'.'.'.d - [ } D x.g+x+A+v+5.]._.<.d.6.i.z.a   ",
"    7 } _ } / d ` '.T ] : } _ } } Z f.l+A+A+:.2.7.q.K.P.N.v     ",
"    2 b } } ) x ` d = ' } _ l l M M _.5.g+A+f.g.C.K.`.`.R.i     ",
"      a } } ( & $ ! [ } l l l j M Y #._.x.l+x.u.`.`.`.*+f       ",
"        A } } _ _ } _ } j j Y #.3.7.3.C.a.x.5.G.`.*+*+t         ",
"          k } } } l l M Y #.#.#.7.7.C.C.A.v.5.E.*+%+R           ",
"            ' [ } l j M Y 3.3.7.q.C.K.N..+.+L.Y.++i             ",
"              2 k M #.#.7.7.7.C.C.`.`..+.+*+++X a               ",
"                  2 v P C.q.K.A.`.`.*+*+F.X a                   ",
"                      ~ f A A v A u u A 2                       "};
