/* XPM */
static char * history_window_xpm[] = {
"32 32 255 2",
"  	c None",
". 	c #302891",
"+ 	c #282A98",
"@ 	c #1F2ABB",
"# 	c #2A2A9F",
"$ 	c #2B22C9",
"% 	c #222FA2",
"& 	c #2430A3",
"* 	c #132EDE",
"= 	c #2D2CA2",
"- 	c #2325E3",
"; 	c #2E2E9C",
"> 	c #2530AA",
", 	c #2524EB",
"' 	c #302EA4",
") 	c #2727E5",
"! 	c #31309F",
"~ 	c #292CCF",
"{ 	c #2A32AE",
"] 	c #373482",
"^ 	c #2A28E6",
"/ 	c #3231A0",
"( 	c #342DB3",
"_ 	c #2B2BD7",
": 	c #3430A7",
"< 	c #33339A",
"[ 	c #3432A1",
"} 	c #2C2BE0",
"| 	c #3631A8",
"1 	c #3630AF",
"2 	c #2130EA",
"3 	c #2E2AE8",
"4 	c #39387F",
"5 	c #3633A2",
"6 	c #2F37A4",
"7 	c #3732A9",
"8 	c #2F36AA",
"9 	c #2639B9",
"0 	c #2432E4",
"a 	c #3834A4",
"b 	c #312BE9",
"c 	c #312EDB",
"d 	c #38369F",
"e 	c #2532EB",
"f 	c #3139A6",
"g 	c #373C89",
"h 	c #332CEA",
"i 	c #3A33B2",
"j 	c #3237B3",
"k 	c #2A3BB5",
"l 	c #3D3B83",
"m 	c #333AA7",
"n 	c #3339AE",
"o 	c #2833ED",
"p 	c #2B3EAA",
"q 	c #2B3DB0",
"r 	c #3B38A1",
"s 	c #3C36AD",
"t 	c #3C39A2",
"u 	c #3639B6",
"v 	c #363DA4",
"w 	c #3E3AA3",
"x 	c #3E39A9",
"y 	c #383DAB",
"z 	c #3A36D3",
"A 	c #393FA7",
"B 	c #393DB2",
"C 	c #3B32E8",
"D 	c #403CA5",
"E 	c #3F3F9A",
"F 	c #3238EA",
"G 	c #314A8E",
"H 	c #433AB3",
"I 	c #3D33E9",
"J 	c #333CD6",
"K 	c #3B41A8",
"L 	c #3439EC",
"M 	c #444681",
"N 	c #40468D",
"O 	c #474777",
"P 	c #3D43AA",
"Q 	c #373AED",
"R 	c #474689",
"S 	c #385278",
"T 	c #474B80",
"U 	c #365289",
"V 	c #4844A7",
"W 	c #4C4B7C",
"X 	c #3D3FEA",
"Y 	c #4A45A9",
"Z 	c #473BE9",
"` 	c #4B44AF",
" .	c #4448B0",
"..	c #4449AB",
"+.	c #4D4E79",
"@.	c #3F40EC",
"#.	c #395F60",
"$.	c #37615C",
"%.	c #4C49A6",
"&.	c #3846EF",
"*.	c #4242EE",
"=.	c #3A654A",
"-.	c #474CAE",
";.	c #396C3E",
">.	c #555379",
",.	c #545574",
"'.	c #4F5585",
").	c #514DAB",
"!.	c #545384",
"~.	c #474BD7",
"{.	c #3E6D3A",
"].	c #4847EB",
"^.	c #38703B",
"/.	c #3B7035",
"(.	c #534DB2",
"_.	c #3E7030",
":.	c #58557C",
"<.	c #524FAD",
"[.	c #4E4FBA",
"}.	c #40712A",
"|.	c #414CEE",
"1.	c #4A49E6",
"2.	c #4A48ED",
"3.	c #3B742C",
"4.	c #4D53AF",
"5.	c #5450AE",
"6.	c #4C49EE",
"7.	c #4C4CE2",
"8.	c #444EF0",
"9.	c #5054B1",
"0.	c #5154B7",
"a.	c #437822",
"b.	c #5256B3",
"c.	c #504DEB",
"d.	c #5C5D7D",
"e.	c #524EEC",
"f.	c #4B54EF",
"g.	c #5450EE",
"h.	c #447F20",
"i.	c #5453E2",
"j.	c #41821A",
"k.	c #5E627B",
"l.	c #595ABE",
"m.	c #4F58EC",
"n.	c #5955EC",
"o.	c #488324",
"p.	c #4D822B",
"q.	c #5B57EE",
"r.	c #5664B9",
"s.	c #4C861F",
"t.	c #67677C",
"u.	c #468D0E",
"v.	c #448C19",
"w.	c #666983",
"x.	c #565EEC",
"y.	c #686888",
"z.	c #6063C1",
"A.	c #4C9216",
"B.	c #706D7C",
"C.	c #538C25",
"D.	c #508F1F",
"E.	c #6F6C87",
"F.	c #645FF0",
"G.	c #4A970D",
"H.	c #6F6F84",
"I.	c #51950C",
"J.	c #568D3D",
"K.	c #519C03",
"L.	c #4B9F07",
"M.	c #6267F6",
"N.	c #737388",
"O.	c #5C8D44",
"P.	c #75767F",
"Q.	c #737785",
"R.	c #50A200",
"S.	c #6D6ECE",
"T.	c #76768B",
"U.	c #7073B9",
"V.	c #53A500",
"W.	c #7C7889",
"X.	c #696EF6",
"Y.	c #55A702",
"Z.	c #6B6FF8",
"`.	c #797D8B",
" +	c #57A805",
".+	c #7D7E87",
"++	c #736FF3",
"@+	c #59AA0A",
"#+	c #7479CC",
"$+	c #7571F5",
"%+	c #7573F0",
"&+	c #57B000",
"*+	c #81818B",
"=+	c #5BAC0E",
"-+	c #59B100",
";+	c #5CAD10",
">+	c #5FAF00",
",+	c #7D81A8",
"'+	c #5BB303",
")+	c #84858E",
"!+	c #7884B6",
"~+	c #878589",
"{+	c #737BF6",
"]+	c #5DB508",
"^+	c #878891",
"/+	c #5FB70C",
"(+	c #8082F1",
"_+	c #7F8FBA",
":+	c #8E908D",
"<+	c #8688D0",
"[+	c #90928F",
"}+	c #909497",
"|+	c #939592",
"1+	c #888BF5",
"2+	c #989A97",
"3+	c #9B999D",
"4+	c #9291E1",
"5+	c #9A9B98",
"6+	c #8F92E8",
"7+	c #9196D7",
"8+	c #8E9DBD",
"9+	c #9F9DA1",
"0+	c #9EA09D",
"a+	c #9699F0",
"b+	c #979DEC",
"c+	c #999DF3",
"d+	c #9CA2F2",
"e+	c #A8AAA7",
"f+	c #A2A3ED",
"g+	c #ABADAA",
"h+	c #A4A5EF",
"i+	c #AEACB0",
"j+	c #AEB0AD",
"k+	c #B1B3B0",
"l+	c #B4B6B3",
"m+	c #B8BAB7",
"n+	c #BEC0BD",
"o+	c #C1C3BF",
"p+	c #C3C5C2",
"q+	c #C8CAC7",
"r+	c #CBCDCA",
"s+	c #CFD1CE",
"t+	c #D2D4D1",
"u+	c #D5D7D4",
"v+	c #D8DAD7",
"w+	c #DADCD9",
"x+	c #DCDFDB",
"y+	c #DEE0DD",
"z+	c #E0E2DF",
"A+	c #E2E4E1",
"B+	c #E6E8E5",
"C+	c #E7E9E6",
"D+	c #E8EAE7",
"E+	c #E9EBE8",
"F+	c #EAECE9",
"                      & a m r r r 6 r 6 &                       ",
"                  5 w -.b.5.5.<.4.-.%...V 5 /                   ",
"              [ m b.r.5.5.4.).4.M '.,.k.+.l t 5 !               ",
"            5 <.b.5.4.4.).).R t.k+q+n+q+t+g+H.] r !             ",
"          t 9.9.5.4.).-.%.!.}+l+B+C+w+x+D+B+s+9+O ; !           ",
"        6 9.4.).-.%.....M e+B+u+D+F+F+F+F+F+A+B+i+4 # /         ",
"      [ <.).).-.....V g .+o+E+E+F+F+o+C+F+F+E+E+n+W.. # !       ",
"    [ -.-.-.Y Y V V K W n+u+E+F+F+F+k+B+F+E+F+F+u+p+T + ; &     ",
"    f %...Y V V K K E d.z+E+F+F+F+F+n+D+F+F+E+F+E+z+k.. # !     ",
"  / ......P V K D w < W.w+D+F+F+F+F+l+B+F+F+F+E+E+v+B.+ # # !   ",
"  5 V P K D v t r 6 < W.i+E+F+F+F+F+|+B+F+F+F+F+E+m+P.+ ; # [   ",
"! t K v w t r 6 5 / < w.y+E+F+F+F+x+[+F+F+F+F+F+E+A+B.. # ; ! # ",
"/ v w t 6 r < / ! ; + >.u+C+F+F+F+~+B+F+F+F+F+F+D+v+>.+ # # # / ",
"[ (.z.z.l.0.0.0.[. .D ] ~+g+t+F+l+e+F+E+F+F+E+D+g+i+4 ; # 6 l.m ",
"` h+d+h+d+d+b+4+!+s.p.U.E.r+B+E+}+x+F+F+F+E+F+B+s+,.w S.4+f+h+P ",
" .d+h+h+h+h+h+8+C./+;+J.7+)+s+r+B+F+F+F+E+B+s+t+)+<+f+c+a+b+f+ .",
"B ++++%+(+1+!+D.]+/+]+D.f+7+N.3+y+B+s+w+C+x+0+Q.#+%+X.++Z.%+$+k ",
"j x.X.++M.r.o.]+]+]+@+O.h+h+f+,+`.~+5+}+*+E.x , ^ ^ e Q c.F.++B ",
"i , ^ , q o.-+;+-+L.{.C 1.x.c.F , - ( $ ) , ^ ^ ^ 3 e C C F Z i ",
"| ^ , p j.-+-+;+;+A._.{.;.{.;.=.;.S , ^ , ^ , ^ e e I F Z Q X > ",
"# ~ _ h.;+;+;+;+-+>+@+;+>+@+@+@+@+v.9 ^ , 3 3 e C F Z Q X *.z ' ",
"  1 p G.;+-+@+;+-+@+@+;+Y.@+@+R. +G.G ^ e e C C F Z X X *.].j   ",
"  8 } 3. +;+@+@+@+@+@+ + + +@+ +V.D.k b h e I Q X X *.].|.1.|   ",
"    ( _ }.V.@+@+ +A./.^.^.^.{./.{.$.e C F Z Q X *.*.].].8.j     ",
"    ' } _ _.V.V.@+K.{.) , , 3 3 e C F F Q X *.*.].].e.e.7.8     ",
"      | ) _ }.L.V.L.I.=.^ e h e F F Z X *.*.].].c.e.f.n.7       ",
"        s ^ _ _.K.R.L.a.b e I I Z X X ].].].|.e.f.n.n.x         ",
"          1 ) ~ _.K.u.#.C F F Q X X ].].].c.f.f.n.m.B           ",
"            > } _ {.U F F Z X *.*.].].c.f.f.n.q.i.8             ",
"              ' 1 C I F X X *.].].c.e.g.f.n.i.H |               ",
"                  ' j z *.*.].].c.e.n.n.~.H 8                   ",
"                      ' 7 s s j s j n s !                       "};
