/* XPM */
static char * JSConsoleWindow_xpm[] = {
"32 32 255 2",
"  	c None",
". 	c #730015",
"+ 	c #760112",
"@ 	c #6E0514",
"# 	c #700715",
"$ 	c #800012",
"% 	c #790514",
"& 	c #830414",
"* 	c #84050E",
"= 	c #8C0213",
"- 	c #8E061A",
"; 	c #870B16",
"> 	c #6B0116",
", 	c #0029EA",
"' 	c #900815",
") 	c #4D1B66",
"! 	c #980419",
"~ 	c #990514",
"{ 	c #AA0007",
"] 	c #461B97",
"^ 	c #7F122D",
"/ 	c #AE010A",
"( 	c #850F2F",
"_ 	c #302891",
": 	c #920D17",
"< 	c #A60706",
"[ 	c #2A2AA0",
"} 	c #361EC1",
"| 	c #38278C",
"1 	c #9E0C09",
"2 	c #B00403",
"3 	c #0E2BEC",
"4 	c #AF040B",
"5 	c #B80008",
"6 	c #39288D",
"7 	c #71184B",
"8 	c #2330A2",
"9 	c #881231",
"0 	c #4A1E9B",
"a 	c #9D0D16",
"b 	c #89132D",
"c 	c #2D2CA2",
"d 	c #2325E3",
"e 	c #3022D3",
"f 	c #2D2E9C",
"g 	c #2530AA",
"h 	c #2524EB",
"i 	c #302F9E",
"j 	c #BA0312",
"k 	c #302EA4",
"l 	c #512192",
"m 	c #771C4A",
"n 	c #31309F",
"o 	c #292CCF",
"p 	c #2A32AE",
"q 	c #CD0000",
"r 	c #2A28E6",
"s 	c #3231A0",
"t 	c #342DB3",
"u 	c #99161B",
"v 	c #3330A6",
"w 	c #4D2793",
"x 	c #CF0004",
"y 	c #3432A1",
"z 	c #3431A7",
"A 	c #791F4C",
"B 	c #7B1F48",
"C 	c #2C2BE0",
"D 	c #3631A8",
"E 	c #3630AF",
"F 	c #3533A2",
"G 	c #722354",
"H 	c #BD0914",
"I 	c #3633A3",
"J 	c #4727B5",
"K 	c #4F2995",
"L 	c #2E37A4",
"M 	c #2F2AE8",
"N 	c #3732A9",
"O 	c #2F36AA",
"P 	c #D20300",
"Q 	c #2F35B1",
"R 	c #3834A4",
"S 	c #3038A5",
"T 	c #38369F",
"U 	c #2532EB",
"V 	c #3139A6",
"W 	c #332CEA",
"X 	c #3A33B2",
"Y 	c #3237B3",
"Z 	c #DC000E",
"` 	c #E20000",
" .	c #333AA7",
"..	c #C90B0B",
"+.	c #3339AE",
"@.	c #3338B4",
"#.	c #3B38A1",
"$.	c #E50000",
"%.	c #D30611",
"&.	c #982122",
"*.	c #2A33EE",
"=.	c #3C36AD",
"-.	c #E60000",
";.	c #3539B5",
">.	c #3C39A2",
",.	c #B81512",
"'.	c #DF0500",
").	c #E90001",
"!.	c #E6000A",
"~.	c #3830E6",
"{.	c #3D3AA3",
"].	c #373CAA",
"^.	c #383AB7",
"/.	c #3E3BA4",
"(.	c #383FA6",
"_.	c #3A36D3",
":.	c #393DB2",
"<.	c #3B32E8",
"[.	c #403CA5",
"}.	c #EA0402",
"|.	c #AA1F20",
"1.	c #E00906",
"2.	c #3A40A7",
"3.	c #3238EA",
"4.	c #413EA1",
"5.	c #433AB3",
"6.	c #3D33E9",
"7.	c #EA040E",
"8.	c #333CD6",
"9.	c #3B41A8",
"0.	c #3439EC",
"a.	c #F5010B",
"b.	c #EB0804",
"c.	c #3D42AA",
"d.	c #E10D08",
"e.	c #CE160F",
"f.	c #363AED",
"g.	c #4542A5",
"h.	c #383BEE",
"i.	c #E31009",
"j.	c #ED0C05",
"k.	c #CF1818",
"l.	c #4743A6",
"m.	c #E21113",
"n.	c #4844A7",
"o.	c #3C3EE9",
"p.	c #4945A8",
"q.	c #4A45A9",
"r.	c #3E3FEA",
"s.	c #4A44AF",
"t.	c #473BE9",
"u.	c #4349AA",
"v.	c #F70917",
"w.	c #4448B0",
"x.	c #EF1106",
"y.	c #E41414",
"z.	c #3F40EC",
"A.	c #EE1011",
"B.	c #3F43DE",
"C.	c #D21C21",
"D.	c #454AAB",
"E.	c #4141ED",
"F.	c #464BAD",
"G.	c #3846EF",
"H.	c #474BAE",
"I.	c #4342EE",
"J.	c #E5171D",
"K.	c #484CAF",
"L.	c #E6191E",
"M.	c #F11714",
"N.	c #504DAA",
"O.	c #4746EB",
"P.	c #514EAB",
"Q.	c #474BD7",
"R.	c #FB131A",
"S.	c #4947EC",
"T.	c #E71C25",
"U.	c #534DB2",
"V.	c #524FAD",
"W.	c #594CAD",
"X.	c #4A49E6",
"Y.	c #4A48ED",
"Z.	c #414DEE",
"`.	c #4D53AF",
" +	c #5450AE",
".+	c #4C49EE",
"++	c #4C4CE2",
"@+	c #444EF0",
"#+	c #5054B1",
"$+	c #5154B7",
"%+	c #5256B3",
"&+	c #FF1C1D",
"*+	c #E52826",
"=+	c #524EEC",
"-+	c #4B53EF",
";+	c #7B4A9D",
">+	c #E6292D",
",+	c #5450EE",
"'+	c #5453E2",
")+	c #E72B2D",
"!+	c #4D55F0",
"~+	c #595ABE",
"{+	c #E82D2E",
"]+	c #4F58EC",
"^+	c #5855EC",
"/+	c #A54C4D",
"(+	c #5A56ED",
"_+	c #5B57EE",
":+	c #E63635",
"<+	c #575DF3",
"[+	c #C64547",
"}+	c #6063C1",
"|+	c #E8393D",
"1+	c #EA3B3E",
"2+	c #645FF0",
"3+	c #B75452",
"4+	c #8D5F93",
"5+	c #E8423F",
"6+	c #6267F6",
"7+	c #E94446",
"8+	c #EB4647",
"9+	c #6D6ECE",
"0+	c #E94B48",
"a+	c #686DF5",
"b+	c #E84C4D",
"c+	c #696EF7",
"d+	c #6B6FF8",
"e+	c #726EF2",
"f+	c #7370F4",
"g+	c #7571F5",
"h+	c #737BF6",
"i+	c #B07773",
"j+	c #8082F1",
"k+	c #EA666A",
"l+	c #9487E0",
"m+	c #888BF5",
"n+	c #9291E1",
"o+	c #9790DB",
"p+	c #979AF1",
"q+	c #A498DE",
"r+	c #F38487",
"s+	c #9B9EF4",
"t+	c #9CA2F2",
"u+	c #C89DA0",
"v+	c #A2A3ED",
"w+	c #F58C8C",
"x+	c #A4A5EF",
"y+	c #F49396",
"z+	c #F1C2BF",
"A+	c #F4DDD9",
"B+	c #F6E9E9",
"C+	c #F3EDEC",
"D+	c #FBEDEE",
"E+	c #FFFCFA",
"F+	c #FEFFFC",
"                      8 S  .#.#.#.S #.L 8                       ",
"                  F {.N.%+ + +V.V.N.F.q.[.F s                   ",
"              y  .%+;+ + +`.N.N.F.q.n.u.9.9./.F n               ",
"            F V.%+ +`.`.N.N.F.q.u.l.g.4.[./.{.S #.n             ",
"          >.#+#+ +`.N.F.N.q.n.l.g.4.4./.>.#.#.F s f n           ",
"        S #+`.V.F.F.F.u.n.l.g.4.(.{.#.#.F y n n f [ [ s         ",
"      y `.V.N.N.F.u.n.c.g.2.[.{.>.L T y n n f f [ f [ f s       ",
"    y N.F.N.q.q.n.l.9.4.G A A A A m m 7 6 [ [ f [ f [ [ f 8     ",
"    V F.F.q.n.l.g.2.4.b j k.k.k.k.%.e...: 6 [ [ [ [ f f [ s     ",
"  s u.q.u.g.9.2.[.>.^ ,.*+*+{+{+:+{+>+L.%.: 6 [ f [ [ [ [ f n   ",
"  F n.c.4.[./.{.#.^ ,.*+{+5+5+7+r+y+:+:+*+e.' | [ f f [ f [ y   ",
"n >.9.(.(.>.#.T ( ,.*+:+5+b+b+y+F+F+[+|+:+L.e.- | [ [ f [ f n f ",
"s (.(.>.S #.F ^ ,.L.{+5+b+0+8+z+F+B+|.|+>+*+L...= _ f [ [ [ [ s ",
"y U.}+}+~+$+W.~ i.>+5+0+8+5+|+A+F+u+C.*+>+*+L.d.2 ) [ f [ L ~+R ",
"s.x+t+x+t+t+o+a L.:+5+7+|+{+*+E+F+/+m.y.J.J.L.d.4 ) [.9+n+v+x+s.",
"w.t+x+x+x+x+q+u m.:+5+|+*+J.{+F+C+|.$.d.!.d.d.!.4 4+v+s+p+p+v+w.",
":.e+f+h+j+m+l+u J.{+:+>+J.d.*+F+i+P '.$.!.'.'.'.2 ;+d+e+d+h+g+:.",
";.2+a+e+6+<+B.- L.>+{+L.d.d.L.B+1 $.$.$.$.$.$.$./ ] U h.=+2+e+:.",
"X h M M r r e ; m.T.L.m.d.$.d.2 P $.d.-.!.-.d.-.{ ] U ~.<.3.t.X ",
"z r h r h h e ; m.L.L.d.'.{+D+A+Z -.-.b.7.b.-.-.< 0 6.3.t.h.r.g ",
"[ o r r r r e % x m.d.d.'.k+F+C+4 7.b.v.b.v.b.d.& J t.f.r.r._.v ",
"  E h h h h r J . q '.'.$.d.3+&.Z b.M.x.x.a.i.& l t.o.r.r.O.;.  ",
"  v r r r r h h } + x $.$.$.-.b.b.M.v.x.R.A.* l r.r.r.O.Y.X.D   ",
"    t r h r r r h } . P $.-.-.b.j.x.R.&+M.& l r.r.r.Y.X.Z.;.    ",
"    k C r h h h r r } + q -.7.7.v.M.v.M.$ l r.r.O.Y.=+=+++O     ",
"      z r r r r r h r } > @ @ @ @ @ # @ K r.O.O.X.=+,+!+N       ",
"        =.r h h h r h M M U 6.6.t.r.r.O.O.Y.X.=+,+(+(+R         ",
"          E d r r M M ~.<.3.3.f.r.r.Y.O.X.=+!+!+(+]+:.          ",
"            g C M W U 3.3.t.o.r.r.O.Y.=+!+++!+_+'+O             ",
"              k E ~.6.3.r.r.r.O.O.Z.=+!+!+(+'+5.D               ",
"                  8 Y _.O.r.Y.X.=+=+(+(+Q.5.O                   ",
"                      k N =.=.Y =.+.+.=.n                       "};
