/* XPM */
static char * messengerWindow_xpm[] = {
"32 32 255 2",
"  	c None",
". 	c #171CB1",
"+ 	c #22227A",
"@ 	c #1E1F77",
"# 	c #232475",
"$ 	c #282485",
"% 	c #201EBB",
"& 	c #212693",
"* 	c #1323CE",
"= 	c #2B2299",
"- 	c #0029EA",
"; 	c #2C258E",
"> 	c #24298F",
", 	c #251FC5",
"' 	c #1823D7",
") 	c #252B8A",
"! 	c #1A28B9",
"~ 	c #312A71",
"{ 	c #262996",
"] 	c #262D85",
"^ 	c #2E288A",
"/ 	c #2E2B7E",
"( 	c #2822C0",
"_ 	c #2F2A85",
": 	c #282F80",
"< 	c #2924B9",
"[ 	c #292B98",
"} 	c #292A9F",
"| 	c #2A26B3",
"1 	c #2A2AA0",
"2 	c #1F25D9",
"3 	c #2A2F88",
"4 	c #322898",
"5 	c #0E2BEC",
"6 	c #2330A2",
"7 	c #2D29AF",
"8 	c #2D2CA2",
"9 	c #2325E3",
"0 	c #2D2E9C",
"a 	c #2530AA",
"b 	c #3121DA",
"c 	c #2524EB",
"d 	c #252FB1",
"e 	c #2F2DA3",
"f 	c #2F2CA9",
"g 	c #39355F",
"h 	c #2F3097",
"i 	c #302F9E",
"j 	c #302EA4",
"k 	c #31309F",
"l 	c #292CCF",
"m 	c #2A32AE",
"n 	c #2A31B4",
"o 	c #2A28E6",
"p 	c #3231A0",
"q 	c #342DB3",
"r 	c #3330A6",
"s 	c #33358F",
"t 	c #3432A1",
"u 	c #2C2BE0",
"v 	c #2D2CD8",
"w 	c #3531A8",
"x 	c #3533A2",
"y 	c #3B3B6A",
"z 	c #2E389E",
"A 	c #2E37A4",
"B 	c #3732A9",
"C 	c #2F36AA",
"D 	c #2333DC",
"E 	c #302AE9",
"F 	c #2F35B1",
"G 	c #3831B0",
"H 	c #3734A3",
"I 	c #2331EB",
"J 	c #363892",
"K 	c #3038A5",
"L 	c #3239A7",
"M 	c #332CEA",
"N 	c #3236B9",
"O 	c #2732ED",
"P 	c #3B33B2",
"Q 	c #3B35AD",
"R 	c #3A38A0",
"S 	c #3339AE",
"T 	c #413C78",
"U 	c #3338B4",
"V 	c #2A33EE",
"W 	c #343BA8",
"X 	c #3C36AE",
"Y 	c #2B37D8",
"Z 	c #3C39A2",
"` 	c #3830E6",
" .	c #3D3AA3",
"..	c #383AB7",
"+.	c #3E3BA4",
"@.	c #3A36D3",
"#.	c #393FA6",
"$.	c #393DB2",
"%.	c #3B32E8",
"&.	c #403CA5",
"*.	c #494173",
"=.	c #47417E",
"-.	c #3C36DB",
";.	c #433AB3",
">.	c #3D33E9",
",.	c #4C465B",
"'.	c #3338EB",
").	c #333CD6",
"!.	c #3B41A8",
"~.	c #353CDE",
"{.	c #4340A3",
"].	c #3D42AA",
"^.	c #363AED",
"/.	c #4542A5",
"(.	c #383BEE",
"_.	c #534965",
":.	c #4743A6",
"<.	c #4844A8",
"[.	c #4F4A76",
"}.	c #47479D",
"|.	c #3C41DC",
"1.	c #453ED4",
"2.	c #3D3FEA",
"3.	c #4A45A9",
"4.	c #4A44AF",
"5.	c #473BE9",
"6.	c #594D58",
"7.	c #4349AA",
"8.	c #4448B0",
"9.	c #3F40EC",
"0.	c #564D69",
"a.	c #454AAB",
"b.	c #5C4F5B",
"c.	c #464BAD",
"d.	c #534E7A",
"e.	c #3846EF",
"f.	c #4242EE",
"g.	c #474CAE",
"h.	c #5F5269",
"i.	c #4746EB",
"j.	c #514DAB",
"k.	c #474BD7",
"l.	c #5C527A",
"m.	c #4947EC",
"n.	c #534DB2",
"o.	c #524FAD",
"p.	c #4A49E6",
"q.	c #4A48ED",
"r.	c #414DEE",
"s.	c #4D53AF",
"t.	c #5450AE",
"u.	c #5D5387",
"v.	c #4C49EE",
"w.	c #4C4CE2",
"x.	c #444EF0",
"y.	c #5053B6",
"z.	c #5054B1",
"A.	c #63596A",
"B.	c #625874",
"C.	c #665870",
"D.	c #5256B3",
"E.	c #6C5B5D",
"F.	c #524EEC",
"G.	c #6A5F5F",
"H.	c #4B54EF",
"I.	c #5450EE",
"J.	c #5453E2",
"K.	c #695F71",
"L.	c #595ABE",
"M.	c #4F58EC",
"N.	c #5956ED",
"O.	c #6E6476",
"P.	c #716667",
"Q.	c #76665C",
"R.	c #6063C1",
"S.	c #79695F",
"T.	c #6360EA",
"U.	c #645FF0",
"V.	c #746D84",
"W.	c #7C6E69",
"X.	c #7F6F65",
"Y.	c #6566E0",
"Z.	c #686CC4",
"`.	c #7A7082",
" +	c #827168",
".+	c #857364",
"++	c #84736A",
"@+	c #6F70BC",
"#+	c #847671",
"$+	c #686DF6",
"%+	c #88776D",
"&+	c #6B6FF8",
"*+	c #7370F4",
"=+	c #8F7C6D",
"-+	c #918076",
";+	c #938071",
">+	c #958273",
",+	c #737BF6",
"'+	c #99846F",
")+	c #988575",
"!+	c #9A8570",
"~+	c #998677",
"{+	c #7E80EF",
"]+	c #9B8879",
"^+	c #9D8A7B",
"/+	c #9F8B7C",
"(+	c #A08D7E",
"_+	c #A28F7F",
":+	c #A59282",
"<+	c #A79484",
"[+	c #9291E1",
"}+	c #9095D6",
"|+	c #9694E4",
"1+	c #AD9A8A",
"2+	c #B19D8D",
"3+	c #9699F0",
"4+	c #AF9E93",
"5+	c #999BE4",
"6+	c #B29F8F",
"7+	c #989BF2",
"8+	c #9CA2F2",
"9+	c #B9A595",
"0+	c #B5A896",
"a+	c #A2A3ED",
"b+	c #A4A5EF",
"c+	c #B6AB9F",
"d+	c #BCAAA0",
"e+	c #B9AEA2",
"f+	c #C0AEA4",
"g+	c #BDB3A6",
"h+	c #C3B1A6",
"i+	c #C4B9AC",
"j+	c #C6BBAE",
"k+	c #CABFB2",
"l+	c #CCC1B5",
"m+	c #CFC4B7",
"n+	c #D0C6B9",
"o+	c #D5CABD",
"p+	c #D7CCC0",
"q+	c #DACFC2",
"r+	c #D9D1CA",
"s+	c #DCD1C4",
"t+	c #DFD4C7",
"u+	c #E1D8D1",
"v+	c #E4DBD4",
"w+	c #E6DDD6",
"x+	c #E9E0D9",
"y+	c #EAE2DB",
"z+	c #ECE4DD",
"A+	c #EEE5DE",
"B+	c #F2E9E2",
"C+	c #F3EAE3",
"D+	c #F5EDE5",
"E+	c #F6EEE7",
"F+	c #F9F0E9",
"                      4 K K +.Z K K Z H 6                       ",
"                  x  .j.D.t.t.o.s.j.c.3.&.A p                   ",
"              t W D.D.t.t.s.j.j.c.3.<.7.!.{.+.x k               ",
"            x o.D.t.s.s.j.j.c.3.7.:./.!.&.+. .A Z k             ",
"          +.z.z.t.s.j.g.j.3.<.:./.!.{.+.Z Z Z x p 0 k           ",
"        K z.s.j.g.g.c.7.<.:./.{.#.#.Z Z H t k k 0 } } p         ",
"      t o.j.j.j.c.7.<.]./.#.&. .Z A A t k k 0 } [ } [ } 4       ",
"    t g.g.j.3.3.<.:.!.{.&. .Z A A t p 0 0 [ } } [ } [ [ 0 6     ",
"    K g.c.3.<.:.{.J : / / / _ _ ) > ; { [ } [ [ } [ } } } 4     ",
"  p 7.3.7./.{.#.J G.>+>+'+=+.+Q.Q.G.b.g @ + $ & 6 [ [ [ [ } k   ",
"  x <.].!.&.+.R y >+<+l+h+h+0+4+:+/+>+;+>+=+S._.@ > 6 } } [ t   ",
"k Z {.#.#.Z Z ] ;+_+4+F+F+F+F+D+F+F+F+v+m+9+<+;+;+,.; } [ } k [ ",
"p #.#.Z A Z ^ _._+n+;+t+F+D+F+D+F+D+F+F+D+F+F+v+<+>+# [ } [ [ p ",
"t n.R.R.L.y.}.;+g+A+6+/+x+F+F+F+F+F+F+D+F+F+D+u+)+~+~ } [ H L.H ",
"4.b+8+b+8+5+V./+v+A+q+/+_+p+D+D+F+D+F+F+F+D+m+~+6+/+*.Z.[+a+b+4.",
"8.8+b+b+b+}+#+c+v+0+'+:+_+'+]+f+k+n+o+r+k+/+)+0+A+_+`.[+3+7+a+8.",
"$.*+*+,+{+@+!+h+/+<+r+D+C+x+k+1+/+~+;+;+'+c+w+A+A+1+O.Y.&+,+*+$.",
"U U.$+*+T.l./+~+g+D+C+C+C+D+C+D+D+C+C+t+:+_+p+t+A+0+O.Y F.U.*+$.",
"P c E 5 ' A.'+i+C+C+C+C+D+C+C+C+C+C+D+C+A+9+!+l+A+4+B.v %.'.5.a ",
"r o c o * W.>+k+A+C+D+C+C+C+D+C+D+C+C+D+C+C+h+>+k+<+l.D 5.(.2.a ",
"} l o o b =.++!+>+4+g+l+r+x+C+C+D+C+C+C+C+D+C+l+'+/+l.-.2.f.).r ",
"  G c c c 2 , = _. +;+~+>+'+~+:+4+0+h+i+m+o+r+o+1+~+[.@.f.i.U   ",
"  r o o o o c 9 ' ( % . = T h.Q.X.%+;+>+~+!+'+!+~+)+B.1.q.p.r   ",
"    d o c o o o c o c o o 9 * , , ( < | | d a f P q k.p.r.U     ",
"    j u o c c c o o o c c c b o ` >.>.'.^.2.f.f.i.q.F.F.w.C     ",
"      r o o o o o c o o E M M I '.'.5.2.f.f.i.i.p.F.H.N.B       ",
"        X o c c c o c o u I %.'.5.2.2.i.i.q.p.F.H.N.N.$.        ",
"          U b o o b o ` >.'.^.^.2.2.i.i.p.F.H.H.N.M.$.          ",
"            a u o M I '.'.5.2.f.f.i.q.F.H.w.N.N.J.C             ",
"              j q ` '.^.2.2.f.i.i.r.F.I.H.N.J.;.B               ",
"                  6 U @.f.f.q.p.F.F.N.N.k.;.C                   ",
"                      j B S X U X S S C k                       "};
