/* XPM */
static char * msgcomposeWindow_xpm[] = {
"32 32 255 2",
"  	c None",
". 	c #000306",
"+ 	c #030817",
"@ 	c #09151F",
"# 	c #121411",
"$ 	c #111928",
"% 	c #151924",
"& 	c #181920",
"* 	c #191A21",
"= 	c #000200",
"- 	c #1E1C1F",
"; 	c #1D1965",
"> 	c #222421",
", 	c #23232B",
"' 	c #1F262C",
") 	c #0121C2",
"! 	c #232456",
"~ 	c #1F2078",
"{ 	c #2A2C29",
"] 	c #262B41",
"^ 	c #212765",
"/ 	c #29295C",
"( 	c #272190",
"_ 	c #2B2D4A",
": 	c #2C2B5F",
"< 	c #0029EA",
"[ 	c #2E2B66",
"} 	c #302F52",
"| 	c #2F305E",
"1 	c #31324F",
"2 	c #2A2AA0",
"3 	c #302D81",
"4 	c #212FA1",
"5 	c #0E2BEC",
"6 	c #363458",
"7 	c #2C2D9B",
"8 	c #2430A3",
"9 	c #2D2CA2",
"0 	c #3A3745",
"a 	c #33365E",
"b 	c #2E2E9C",
"c 	c #2530AA",
"d 	c #2524EB",
"e 	c #2526E3",
"f 	c #2E3C5C",
"g 	c #302F9E",
"h 	c #302EA4",
"i 	c #31309F",
"j 	c #292CCF",
"k 	c #2A32AE",
"l 	c #2A28E6",
"m 	c #3231A0",
"n 	c #342DB3",
"o 	c #3330A6",
"p 	c #3E3B55",
"q 	c #3432A1",
"r 	c #3431A7",
"s 	c #2C2BE0",
"t 	c #3631A8",
"u 	c #3533A2",
"v 	c #2E2AE8",
"w 	c #3633A3",
"x 	c #1B4977",
"y 	c #2E37A4",
"z 	c #263BA6",
"A 	c #3732A9",
"B 	c #2F36AA",
"C 	c #2F35B1",
"D 	c #3831B0",
"E 	c #3834A4",
"F 	c #2431EB",
"G 	c #312BE9",
"H 	c #322DE2",
"I 	c #3139A6",
"J 	c #332CEA",
"K 	c #2732ED",
"L 	c #3B33B2",
"M 	c #3337B3",
"N 	c #434059",
"O 	c #2A3FA3",
"P 	c #333AA7",
"Q 	c #2243A6",
"R 	c #3B35AD",
"S 	c #3339AE",
"T 	c #3B38A1",
"U 	c #2A33EE",
"V 	c #3C36AE",
"W 	c #3539B5",
"X 	c #3830E6",
"Y 	c #41455D",
"Z 	c #3D3AA3",
"` 	c #383AB7",
" .	c #373DAB",
"..	c #2F42A7",
"+.	c #3E3BA4",
"@.	c #1D4BAC",
"#.	c #3A33E0",
"$.	c #383FA6",
"%.	c #3A36D3",
"&.	c #393DB2",
"*.	c #3B32E8",
"=.	c #403CA5",
"-.	c #2947AA",
";.	c #3A40A7",
">.	c #304B88",
",.	c #3238EA",
"'.	c #433AB3",
").	c #3D33E9",
"!.	c #3C3AC7",
"~.	c #333CD6",
"{.	c #39478D",
"].	c #3B41A8",
"^.	c #3439EC",
"/.	c #3D42AA",
"(.	c #2D4AAE",
"_.	c #363AED",
":.	c #383BEE",
"<.	c #4743A6",
"[.	c #443CDA",
"}.	c #4844A7",
"|.	c #3D3FEA",
"1.	c #4A45A9",
"2.	c #2C53B0",
"3.	c #473BE9",
"4.	c #4B44AF",
"5.	c #4448B0",
"6.	c #4449AB",
"7.	c #53505F",
"8.	c #3F40EC",
"9.	c #3E4EAE",
"0.	c #2F55B2",
"a.	c #464BAD",
"b.	c #3846EF",
"c.	c #4242EE",
"d.	c #474CAE",
"e.	c #1D61B5",
"f.	c #295DB2",
"g.	c #3C48F1",
"h.	c #504DAA",
"i.	c #4746EB",
"j.	c #514EAB",
"k.	c #474BD7",
"l.	c #4947EC",
"m.	c #534DB2",
"n.	c #404CEE",
"o.	c #524FAD",
"p.	c #4E4FBA",
"q.	c #4A49E6",
"r.	c #4D52AE",
"s.	c #534FAE",
"t.	c #424DEF",
"u.	c #3061B6",
"v.	c #4E53B0",
"w.	c #4B49EE",
"x.	c #5550AF",
"y.	c #4C4CE2",
"z.	c #444EF0",
"A.	c #5054B1",
"B.	c #3263B8",
"C.	c #5154B7",
"D.	c #5256B3",
"E.	c #1E6FBB",
"F.	c #3466B5",
"G.	c #2070BC",
"H.	c #524EEC",
"I.	c #2271BD",
"J.	c #2D6CBA",
"K.	c #4B53EF",
"L.	c #5450EE",
"M.	c #5453E2",
"N.	c #2572BF",
"O.	c #4D55F0",
"P.	c #595ABE",
"Q.	c #2876BC",
"R.	c #5855EC",
"S.	c #5059ED",
"T.	c #5A56ED",
"U.	c #3673BB",
"V.	c #696676",
"W.	c #5B57EE",
"X.	c #2C78BE",
"Y.	c #2F7AC1",
"Z.	c #575DF3",
"`.	c #6063C1",
" +	c #347DC4",
".+	c #6E6F78",
"++	c #645FF0",
"@+	c #3681C1",
"#+	c #6267F6",
"$+	c #4480C3",
"%+	c #3C85C6",
"&+	c #6D6ECE",
"*+	c #656DEE",
"=+	c #686DF5",
"-+	c #4A87C3",
";+	c #696EF7",
">+	c #7171D2",
",+	c #7671CC",
"'+	c #6B6FF8",
")+	c #7C7D86",
"!+	c #726EF2",
"~+	c #4E8AC7",
"{+	c #7370F4",
"]+	c #7477D0",
"^+	c #508CC9",
"/+	c #7571F5",
"(+	c #7573F0",
"_+	c #797BD6",
":+	c #737BF6",
"<+	c #728DA3",
"[+	c #84898C",
"}+	c #5A98CF",
"|+	c #8C8E8B",
"1+	c #8082F1",
"2+	c #8488DC",
"3+	c #8F918E",
"4+	c #659BCC",
"5+	c #8286EF",
"6+	c #919390",
"7+	c #8F9396",
"8+	c #7B91E2",
"9+	c #6AA0D1",
"0+	c #888BF5",
"a+	c #8D91E6",
"b+	c #9392E2",
"c+	c #9D9B9F",
"d+	c #9293F0",
"e+	c #78A7D4",
"f+	c #9497ED",
"g+	c #9FA19E",
"h+	c #9DA2A4",
"i+	c #7BAAD7",
"j+	c #9699F0",
"k+	c #9B99EA",
"l+	c #989BF2",
"m+	c #979DEC",
"n+	c #83ADD4",
"o+	c #9B9EF4",
"p+	c #9CA2F2",
"q+	c #89B3DB",
"r+	c #A2A3ED",
"s+	c #92B1CE",
"t+	c #A3A4EE",
"u+	c #A4A5EF",
"v+	c #ADAFAC",
"w+	c #95B5D1",
"x+	c #93B7D9",
"y+	c #B2B4B1",
"z+	c #98BCDF",
"A+	c #B5B7B4",
"B+	c #A0C0DD",
"C+	c #B9BBB8",
"D+	c #A2C2DE",
"E+	c #C1C3BF",
"F+	c #C4C6C3",
"                      4 E P T (.G.E.u.f.@.                      ",
"                  u Z h.D.x.x.B.-+e+4+^+Q.E.0.                  ",
"              q P D.D.x.r.r.h.J.9+D+D+D+B+e+@+E.i               ",
"            u o.D.x.r.r.h.h.a.N.q+D+D+D+D+D+e+F.T i             ",
"          T A.A.x.r.h.d.h.1.9.N.D+D+D+D+D+D+~+2.m b i           ",
"        y A.r.o.d.d.6.6.}.<.0.$+D+D+D+D+D+D+U...7 7 7 m         ",
"      q o.o.h.h.6.6.}./.].;.u.}+D+D+D+D+D+B+G.y 2 7 2 7 i       ",
"    q h.d.h.1.1.}.<.].<.=.Z J.i+D+D+D+D+D+i+J.7 2 7 2 2 b 8     ",
"    I d.6.1.}.<.<.;.=.Z T T N.x+D+D+D+D+D+4+f.2 7 2 7 7 7 i     ",
"  m 6.6.6.<.<.;.=.Z y T T z G.B+D+D+D+D+D+$+-.2 7 2 2 2 2 7 i   ",
"  u }./.].=.+.Z T y u m b O N.D+D+D+D+D+x+N.b 7 7 7 7 7 7 2 q   ",
"i T <.$.$.T T y u m i b 7 ..Y.D+D+D+D+D+4+e.7 2 2 2 2 7 2 7 i 7 ",
"m $.$.T y T u m i b 2 2 7 @.$+D+D+D+D+D+N.Q 7 7 7 2 7 2 7 2 2 m ",
"q s.`.`.P.C.C.C.p.5.=.b 7 @.~+w+s+D+D+i+N.7 2 2 2 7 2 7 2 y P.E ",
"4.u+p+u+p+p+m+a+2+_+>+]+]+a @ = . ' <+^+u.i 7 7 7 2 =.&+a+r+u+4.",
"5.p+u+u+u+u+u+u+p+u+u+u+u+p = . = . = x 8+m+b+a+b+a+r+m+j+k+r+5.",
"&.!+{+(+1+0+d+l+t+u+p+u+u+] = = = = . $ u+p+r+f+5+(+!+!+'+(+/+&.",
"W ++=+!+#+Z.l.J ,.!+d+p+u+% # { - = = {.S.|.e d e e H :.H.++!+&.",
"L d v v e e e e d d d X q.* g+F+y+> + e e d e e v v H X *.,.3.c ",
"r e d e d d d e e e e d ( [+F+E+F+3+; e d e d v H J *.,.3.:.|.c ",
"2 j e e e e e d d e d e 1 F+F+F+F+F+/ e d e v X X ,.3._.|.c.!.o ",
"  D d d d d e e d e e n V.F+F+E+F+E+6 v H H X *.,.3.|.|.c.i.W   ",
"  o e e e e d d e e d ~ v+E+6+7+F+F+p G J X ).:.|.|.c.i.q.q.t   ",
"    n e d e e e d e d | F+F+.+6+E+F+Y ,.,.3._.|.c.c.l.q.z.W     ",
"    h s e d d d e d e : F+E+.+g+F+F+N ,._.|.c.c.i.q.H.H.y.B     ",
"      r e e e e e d e a F+F+0 v+F+E+a |.c.c.i.l.H.H.L.O.A       ",
"        V e d d d e d ^ c+F+, C+E+)+: i.i.q.n.H.L.T.T.E         ",
"          D e e e e v H : g+* y+1 o i.i.q.H.O.O.T.S.&.          ",
"            c s v J U ,.#.1 & 1 [.i.q.H.O.y.O.W.M.B             ",
"              h D X ).,.|.3 = T l.H.H.O.O.T.M.'.t               ",
"                  8 M %.c.!.! q.H.H.T.T.k.'.B                   ",
"                      h A S V M V M S B i                       "};
