/* XPM */
static char * venkman_window_xpm[] = {
"32 32 255 2",
"  	c None",
". 	c #100A08",
"+ 	c #150808",
"@ 	c #1B080B",
"# 	c #1D0905",
"$ 	c #170B0B",
"% 	c #200806",
"& 	c #28070A",
"* 	c #290803",
"= 	c #250909",
"- 	c #2D0706",
"; 	c #0F0907",
"> 	c #340705",
", 	c #33070C",
"' 	c #300A0B",
") 	c #2D0B1A",
"! 	c #390710",
"~ 	c #3B070B",
"{ 	c #360A10",
"] 	c #410608",
"^ 	c #3B0812",
"/ 	c #440702",
"( 	c #490507",
"_ 	c #44080B",
": 	c #420816",
"< 	c #3D0B14",
"[ 	c #4C0702",
"} 	c #530608",
"| 	c #5A0305",
"1 	c #49081E",
"2 	c #440B1C",
"3 	c #4F0B0E",
"4 	c #53091A",
"5 	c #4B0C25",
"6 	c #670501",
"7 	c #580B0E",
"8 	c #770004",
"9 	c #6F0407",
"0 	c #560D21",
"a 	c #5C0A23",
"b 	c #710601",
"c 	c #500E36",
"d 	c #341564",
"e 	c #4F103C",
"f 	c #531033",
"g 	c #541321",
"h 	c #3A1850",
"i 	c #520F47",
"j 	c #52171E",
"k 	c #7C0702",
"l 	c #5C0F33",
"m 	c #52133E",
"n 	c #29216E",
"o 	c #700B24",
"p 	c #50115E",
"q 	c #521544",
"r 	c #23237B",
"s 	c #7C0A11",
"t 	c #501649",
"u 	c #4A1857",
"v 	c #51116A",
"w 	c #980004",
"x 	c #900500",
"y 	c #5C1923",
"z 	c #521555",
"A 	c #4D1854",
"B 	c #4F1464",
"C 	c #4F1370",
"D 	c #A10002",
"E 	c #4C1676",
"F 	c #4A1C5F",
"G 	c #4F147D",
"H 	c #57165D",
"I 	c #471D65",
"J 	c #90080F",
"K 	c #4B1682",
"L 	c #511672",
"M 	c #0029EA",
"N 	c #312481",
"O 	c #441895",
"P 	c #471989",
"Q 	c #541969",
"R 	c #AC0001",
"S 	c #3E2277",
"T 	c #3F217D",
"U 	c #AE0002",
"V 	c #3B2383",
"W 	c #352589",
"X 	c #272A97",
"Y 	c #411BA4",
"Z 	c #AB0016",
"` 	c #611E40",
" .	c #63212E",
"..	c #341FB9",
"+.	c #B00303",
"@.	c #B50006",
"#.	c #2A2AA0",
"$.	c #1F25D9",
"%.	c #0E2BEC",
"&.	c #BA0000",
"*.	c #2C2C9A",
"=.	c #371FC2",
"-.	c #60214B",
";.	c #2330A2",
">.	c #2D2D9B",
",.	c #2D2CA2",
"'.	c #2425E3",
").	c #BA020A",
"!.	c #2E2E9C",
"~.	c #2530AA",
"{.	c #2524EB",
"].	c #C30000",
"^.	c #4122B0",
"/.	c #302F9E",
"(.	c #3322DC",
"_.	c #BC0502",
":.	c #302EA4",
"<.	c #31309F",
"[.	c #C60200",
"}.	c #2A32AE",
"|.	c #2A28E6",
"1.	c #3231A0",
"2.	c #CD0003",
"3.	c #342DB3",
"4.	c #3430A7",
"5.	c #CF0004",
"6.	c #D10000",
"7.	c #3432A1",
"8.	c #2C2BE0",
"9.	c #2D36A3",
"0.	c #2D35A9",
"a.	c #3631A8",
"b.	c #3533A2",
"c.	c #2E2AE8",
"d.	c #2E37A4",
"e.	c #3732A9",
"f.	c #D80000",
"g.	c #2F35B1",
"h.	c #2231EA",
"i.	c #3831B0",
"j.	c #3734A3",
"k.	c #2F37AB",
"l.	c #3038A5",
"m.	c #312BE9",
"n.	c #DB0002",
"o.	c #2532EB",
"p.	c #3139A6",
"q.	c #D30600",
"r.	c #332CEA",
"s.	c #3237B3",
"t.	c #3937A0",
"u.	c #DE0100",
"v.	c #2732ED",
"w.	c #3B33B2",
"x.	c #4F2CA5",
"y.	c #333AA7",
"z.	c #3339AE",
"A.	c #3338B4",
"B.	c #3B38A1",
"C.	c #2A33EE",
"D.	c #3C36AD",
"E.	c #E60000",
"F.	c #3539B5",
"G.	c #3C39A2",
"H.	c #E90001",
"I.	c #3830E6",
"J.	c #3D3AA3",
"K.	c #3832DF",
"L.	c #383AB7",
"M.	c #3E3BA4",
"N.	c #383FA6",
"O.	c #3A36D3",
"P.	c #393DB2",
"Q.	c #3B32E8",
"R.	c #403CA5",
"S.	c #EA0402",
"T.	c #F50000",
"U.	c #3A40A7",
"V.	c #3238EA",
"W.	c #433AB3",
"X.	c #3D33E9",
"Y.	c #4B34BF",
"Z.	c #333CD6",
"`.	c #3B41A8",
" +	c #3439EC",
".+	c #FB0003",
"++	c #3D42AA",
"@+	c #363AED",
"#+	c #FF0000",
"$+	c #4542A5",
"%+	c #383BEE",
"&+	c #4743A6",
"*+	c #4844A7",
"=+	c #4945A8",
"-+	c #3D3FEA",
";+	c #4A45A9",
">+	c #4A44AF",
",+	c #473BE9",
"'+	c #4349AA",
")+	c #4448B0",
"!+	c #3F40EC",
"~+	c #454AAB",
"{+	c #464BAD",
"]+	c #3846EF",
"^+	c #474BAE",
"/+	c #4242EE",
"(+	c #484CAF",
"_+	c #504DAA",
":+	c #4746EB",
"<+	c #514EAB",
"[+	c #474BD7",
"}+	c #70477E",
"|+	c #4947EC",
"1+	c #534DB2",
"2+	c #524FAD",
"3+	c #4A49E6",
"4+	c #4A48ED",
"5+	c #414DEE",
"6+	c #4D53AF",
"7+	c #5450AE",
"8+	c #4F52B5",
"9+	c #4C49EE",
"0+	c #4C4CE2",
"a+	c #444EF0",
"b+	c #5054B1",
"c+	c #5154B7",
"d+	c #5256B3",
"e+	c #524EEC",
"f+	c #4B53EF",
"g+	c #5450EE",
"h+	c #5453E2",
"i+	c #784E9F",
"j+	c #4D55F0",
"k+	c #595ABE",
"l+	c #4F58EC",
"m+	c #5955EC",
"n+	c #5B57EE",
"o+	c #895680",
"p+	c #6D59CA",
"q+	c #6063C1",
"r+	c #87598D",
"s+	c #645FF0",
"t+	c #6A6FF8",
"u+	c #736FF3",
"v+	c #7571F5",
"w+	c #7573F0",
"x+	c #9274B7",
"y+	c #8286EF",
"z+	c #998AC9",
"A+	c #9291E1",
"B+	c #9699F0",
"C+	c #999DF3",
"D+	c #9CA2F2",
"E+	c #A2A3ED",
"F+	c #A4A5EF",
"                      ;.p.y.B.B.B.l.B.j.;.                      ",
"                  b.J._+d+7+7+2+2+_+{+;+R.9.1.                  ",
"              7.y.d+i+7+7+6+_+_+{+;+*+'+`.$+M.b.<.              ",
"            b.2+d+7+6+6+_+_+{+;+'+&+$+`.R.M.J.l.B.<.            ",
"          G.b+b+7+6+_+{+_+;+*+&+$+`.$+M.G.B.B.b.1.!.<.          ",
"        l.b+6+2+{+{+{+'+*+&+$+U.N.J.B.B.j.7.<.<.>.*.*.1.        ",
"      7.6+2+_+_+{+'+*+++$+U.R.J.G.9.B.7.<.<.>.*.#.*.#.#.1.      ",
"    7._+{+_+;+;+*+&+`.$+R.J.B.9.B.7.1.!.>.#.*.*.#.*.#.#.!.;.    ",
"    p.{+{+;+*+&+$+U.R.J.B.B.B.7.<.!.>.*.*.*.#.#.*.X h Z ) n     ",
"  1.'+;+'+$+$+U.R.J.l.B.B.1.!.!.:.*.*.#.#.*.*.N f ).2.f n #.<.  ",
"  b.*+++`.R.M.J.B.d.b.1.!.!.*.*.#.*.#.*.#.u 4 2.n.o V *.S S 7.  ",
"<.G.$+N.N.G.B.d.b.1.<.!.*.*.*.V I q f 0 s U .+J I #.#.V - f <.*.",
"1.N.N.G.l.B.b.1.<.!.N q 0 _ # % n.6.T.#+#+#+_.A *.*.X 9 R q #.1.",
"7.8+q+q+k+c+c+8+` 3 b b [ ; + [ 5.#+#+#+#+@.> m u t ).[.l j.k+j.",
">+F+D+F+D+D+o+3 q.].& } U R * w } #+#+#+E.& a ).2.2.6.}+A+E+F+>+",
")+D+F+F+z+j f.f.] w S.#+#+#+n.6 = .+#+#+9 [.T.&.y o+E+C+B+C+E+)+",
"P.u+u+}+' n.- D #+#+#+#+#+#+#+/ + k #+5.+ }  .x+y+w+t+u+t+w+v+P.",
"F.s+p+{ # ] u.#+#+#+#+#+#+#+#+b . ; ~ g -.Y.(.{.|.|.h.%+e+s+u+P.",
"w.'.^ v . &.#+#+#+#+#+#+#+u.| = d % 5 {.|.{.|.|.'.c.h.I.Q.V.,+~.",
"a.c 1 (.# E.#+#+#+#+#+T.x % $ c |.K . K {.|.{.c.m.o.X.V.,+%+-+~.",
"#.z =.|.< _ q.#+#+.+w * # c % ..|.{.c { {.(.c.I.Q.V.,+@+-+/+O.:.",
"  i.{.{.O , . _ [ @ ; $ v = B {.|.{.|.< L h.I.Q.V.,+-+-+/+:+F.  ",
"  0.|.|.|.(.B p i = & P < c |.|.{.|.c.^., Q O.%+-+-+/+:+4+3+0.  ",
"    3.|.{.|.|.E % 5 ..B < |.{.|.%.c.I.Q.H ^ > x./+/+4+3+5+F.    ",
"    :.8.|.'.c 1 Y |.|.5 K {.(.c.I.Q.V.V.@+-+/+/+:+4+e+e+0+a.    ",
"      a.|.E P |.|.{.|.H '.h.r.o.V.V.,+-+/+/+:+:+3+e+g+m+0.      ",
"        D.|.{.{.{.|.{.c.h.o.X.X.,+-+-+:+:+4+3+e+g+m+m+P.        ",
"          i.(.|.|.(.c.I.Q.V.V.@+-+-+:+:+3+e+j+j+m+l+P.          ",
"            ~.8.c.r.o.V.V.,+-+/+/+:+4+e+j+0+m+n+h+e.            ",
"              :.i.I.X.V.-+-+/+:+:+5+e+j+j+m+h+W.0.              ",
"                  :.w.O./+/+4+3+e+e+m+m+[+W.j.                  ",
"                      :.0.D.D.s.D.z.z.k.<.                      "};
